<svg xmlns="http://www.w3.org/2000/svg" xmlns:xlink="http://www.w3.org/1999/xlink" width="90" zoomAndPan="magnify" viewBox="0 0 67.5 67.499996" height="90" preserveAspectRatio="xMidYMid meet" version="1.0"><defs><clipPath id="6bc89ccbfa"><path d="M 17.535156 11.070312 L 50.785156 11.070312 L 50.785156 44.320312 L 17.535156 44.320312 Z M 17.535156 11.070312 " clip-rule="nonzero"/></clipPath><clipPath id="01e830bc3e"><path d="M 34.15625 11.070312 C 24.976562 11.070312 17.535156 18.511719 17.535156 27.691406 C 17.535156 36.878906 24.976562 44.320312 34.15625 44.320312 C 43.34375 44.320312 50.785156 36.878906 50.785156 27.691406 C 50.785156 18.511719 43.34375 11.070312 34.15625 11.070312 Z M 34.15625 11.070312 " clip-rule="nonzero"/></clipPath><clipPath id="4c9cf98fdf"><path d="M 25.039062 6.480469 L 43.324219 6.480469 L 43.324219 44.09375 L 25.039062 44.09375 Z M 25.039062 6.480469 " clip-rule="nonzero"/></clipPath></defs><g clip-path="url(#6bc89ccbfa)"><g clip-path="url(#01e830bc3e)"><path fill="#dbb800" d="M 17.535156 11.070312 L 50.785156 11.070312 L 50.785156 44.320312 L 17.535156 44.320312 Z M 17.535156 11.070312 " fill-opacity="1" fill-rule="nonzero"/></g></g><g clip-path="url(#4c9cf98fdf)"><path fill="#868d89" d="M 32.125 12.300781 C 32.210938 11.863281 32.351562 11.339844 32.507812 10.871094 C 32.402344 10.410156 32.5 9.902344 32.699219 9.414062 C 33.011719 8.679688 33.589844 7.992188 34.128906 7.597656 C 34.417969 7.390625 34.777344 7.3125 35.0625 7.117188 C 35.167969 7.050781 35.28125 7.023438 35.378906 6.960938 L 35.414062 6.9375 C 35.457031 6.902344 35.5 6.855469 35.542969 6.839844 C 35.664062 6.789062 35.726562 6.882812 35.726562 6.902344 C 35.742188 6.917969 35.769531 6.988281 35.710938 7.058594 C 35.699219 7.074219 35.628906 7.117188 35.578125 7.152344 C 35.570312 7.164062 35.550781 7.1875 35.535156 7.207031 C 35.5 7.285156 35.457031 7.382812 35.414062 7.503906 C 35.28125 7.871094 35.167969 8.402344 34.933594 8.933594 C 34.671875 9.527344 34.078125 10.15625 33.851562 10.417969 C 33.695312 10.609375 33.46875 10.6875 33.238281 10.757812 C 33.066406 10.800781 32.890625 10.835938 32.761719 10.957031 C 32.472656 11.785156 32.261719 12.789062 32.304688 13.128906 C 32.324219 13.207031 32.351562 13.289062 32.367188 13.367188 C 32.59375 14.125 32.761719 14.902344 32.875 15.679688 L 32.898438 15.609375 C 32.996094 15.234375 33.152344 14.65625 33.308594 14.238281 C 33.40625 13.96875 33.511719 13.765625 33.589844 13.6875 C 33.617188 13.664062 33.648438 13.636719 33.683594 13.609375 C 33.695312 13.574219 33.703125 13.539062 33.730469 13.523438 C 33.746094 13.503906 33.773438 13.488281 33.789062 13.46875 C 33.78125 13.390625 33.789062 13.289062 33.824219 13.164062 C 33.921875 12.824219 34.171875 12.328125 34.234375 12.195312 C 34.390625 11.890625 34.503906 11.59375 34.765625 11.359375 C 35.117188 11.035156 36.425781 10.3125 37.375 10.085938 C 37.585938 10.03125 37.777344 10.007812 37.941406 10.007812 C 37.984375 10.007812 38.019531 10.007812 38.054688 10.015625 C 38.203125 10.023438 38.316406 10.066406 38.414062 10.136719 C 38.449219 10.164062 38.464844 10.199219 38.464844 10.242188 C 38.464844 10.269531 38.457031 10.3125 38.414062 10.363281 C 38.363281 10.425781 38.179688 10.53125 38.152344 10.546875 C 37.90625 10.730469 37.742188 10.976562 37.566406 11.21875 C 37.417969 11.421875 37.359375 11.664062 37.226562 11.855469 C 36.886719 12.40625 36.039062 13.027344 35.394531 13.164062 C 34.949219 13.269531 34.515625 13.3125 34.121094 13.550781 C 34.007812 13.679688 33.886719 13.777344 33.773438 13.878906 C 33.703125 13.941406 33.640625 14.105469 33.5625 14.324219 C 33.363281 14.875 33.152344 15.710938 33.082031 15.972656 C 33.058594 16.085938 33.066406 16.226562 33.066406 16.359375 C 33.066406 16.464844 33.046875 16.566406 33.023438 16.65625 C 33.046875 16.890625 33.074219 17.136719 33.101562 17.371094 C 33.109375 17.378906 33.109375 17.386719 33.117188 17.40625 C 33.136719 17.429688 33.136719 17.464844 33.117188 17.492188 C 33.207031 18.339844 33.285156 19.167969 33.378906 20.003906 C 33.441406 20.519531 33.492188 21.027344 33.554688 21.539062 L 33.554688 21.53125 C 33.78125 20.25 34.269531 18.851562 34.6875 17.613281 C 34.6875 17.597656 34.6875 17.589844 34.6875 17.570312 C 34.714844 17.265625 34.722656 16.542969 34.714844 16.464844 C 34.679688 16.0625 34.828125 15.746094 34.914062 15.382812 C 34.984375 15.066406 35.160156 14.804688 35.367188 14.570312 C 35.5625 14.351562 35.789062 14.140625 35.960938 13.933594 C 36.136719 13.730469 36.25 13.636719 36.335938 13.59375 C 36.414062 13.550781 36.476562 13.539062 36.503906 13.539062 C 36.503906 13.539062 36.503906 13.539062 36.511719 13.539062 C 36.617188 13.539062 36.644531 13.617188 36.652344 13.644531 C 36.667969 13.714844 36.675781 13.820312 36.667969 13.941406 C 36.652344 14.175781 36.589844 14.484375 36.554688 14.632812 C 36.46875 15.164062 36.40625 15.773438 36.09375 16.246094 C 35.910156 16.523438 35.675781 16.757812 35.449219 17.003906 C 35.238281 17.230469 35.054688 17.464844 34.933594 17.761719 L 34.933594 17.773438 C 34.933594 17.78125 34.933594 17.78125 34.933594 17.78125 C 34.925781 17.789062 34.914062 17.804688 34.898438 17.816406 C 34.628906 18.636719 34.320312 19.507812 34.085938 20.371094 L 34.09375 20.363281 C 34.269531 20.101562 34.410156 19.945312 35.089844 19.34375 C 35.515625 18.808594 35.804688 18.398438 35.917969 18.242188 C 36.433594 17.5625 37.191406 17.257812 37.941406 16.898438 C 38.089844 16.828125 38.726562 16.550781 38.851562 16.507812 C 38.894531 16.488281 38.917969 16.488281 38.917969 16.488281 C 38.972656 16.488281 39 16.507812 39.023438 16.53125 C 39.042969 16.550781 39.066406 16.585938 39.066406 16.636719 C 39.078125 16.679688 39.066406 16.742188 39.042969 16.820312 C 38.945312 17.136719 38.542969 17.78125 38.457031 17.867188 C 37.953125 18.375 37.507812 18.90625 36.808594 19.117188 C 36.539062 19.195312 36.136719 19.230469 35.789062 19.324219 C 35.578125 19.367188 35.386719 19.4375 35.28125 19.558594 C 35.273438 19.570312 35.253906 19.578125 35.238281 19.578125 C 34.59375 20.152344 34.480469 20.292969 34.304688 20.554688 C 34.242188 20.652344 33.957031 21.121094 33.816406 21.628906 C 33.816406 21.644531 33.816406 21.652344 33.808594 21.664062 C 33.695312 22.335938 33.660156 22.980469 33.746094 23.539062 C 33.753906 23.566406 33.746094 23.597656 33.738281 23.617188 C 34.007812 26.878906 34.207031 30.1875 34.730469 33.378906 L 34.730469 33.371094 C 34.835938 32.558594 35.089844 31.679688 35.429688 30.832031 C 35.429688 30.816406 35.4375 30.796875 35.449219 30.78125 C 35.457031 30.761719 35.464844 30.746094 35.472656 30.726562 C 35.691406 30.203125 35.9375 29.6875 36.1875 29.21875 C 36.3125 28.851562 36.398438 28.527344 36.441406 28.363281 C 36.5625 27.953125 36.667969 27.535156 36.835938 27.140625 C 36.851562 27.089844 36.886719 27.011719 36.914062 26.898438 C 36.914062 26.898438 36.914062 26.890625 36.914062 26.878906 C 36.964844 26.425781 36.914062 25.964844 36.886719 25.511719 C 36.871094 25.023438 36.886719 24.542969 37.113281 24.078125 C 37.226562 23.828125 37.394531 23.582031 37.53125 23.335938 C 37.585938 23.257812 37.636719 23.179688 37.679688 23.101562 C 37.699219 23.074219 37.75 22.988281 37.757812 22.972656 C 37.792969 22.945312 37.828125 22.929688 37.855469 22.929688 C 37.863281 22.929688 37.863281 22.929688 37.871094 22.929688 C 37.90625 22.9375 37.941406 22.953125 37.96875 22.988281 C 38.011719 23.050781 38.039062 23.128906 38.054688 23.214844 C 38.074219 23.3125 38.082031 23.417969 38.109375 23.496094 C 38.570312 24.910156 37.847656 25.824219 37.191406 26.933594 C 37.148438 27.0625 37.121094 27.167969 37.085938 27.238281 C 36.957031 27.570312 36.851562 27.910156 36.757812 28.25 L 36.773438 28.222656 C 37.019531 27.839844 37.261719 27.5 37.488281 27.21875 C 37.863281 26.773438 38.316406 26.523438 38.691406 26.121094 C 38.859375 25.945312 38.953125 25.695312 39.113281 25.492188 C 39.121094 25.476562 39.148438 25.449219 39.164062 25.421875 C 39.171875 25.398438 39.179688 25.351562 39.191406 25.308594 C 39.285156 25.054688 39.589844 24.480469 39.652344 24.386719 C 39.785156 24.148438 39.84375 23.886719 39.976562 23.660156 C 40.289062 23.121094 40.855469 22.65625 41.390625 22.34375 C 41.589844 22.222656 42.304688 22.046875 42.75 21.90625 C 42.890625 21.863281 43.019531 21.800781 43.046875 21.792969 C 43.082031 21.757812 43.117188 21.757812 43.140625 21.757812 C 43.160156 21.757812 43.175781 21.757812 43.1875 21.757812 C 43.222656 21.777344 43.273438 21.800781 43.273438 21.882812 C 43.273438 21.890625 43.273438 21.90625 43.273438 21.941406 C 43.253906 21.976562 43.195312 22.125 43.195312 22.132812 C 43.152344 22.257812 43.117188 22.386719 43.074219 22.507812 C 42.933594 22.917969 42.757812 23.363281 42.410156 23.652344 C 41.972656 24.007812 41.617188 24.507812 41.109375 24.769531 C 40.796875 24.941406 40.4375 25.03125 40.105469 25.152344 C 39.800781 25.265625 39.511719 25.40625 39.3125 25.683594 C 39.304688 25.695312 39.292969 25.703125 39.285156 25.710938 C 39.148438 25.910156 39.050781 26.148438 38.894531 26.3125 C 38.527344 26.714844 38.066406 26.957031 37.707031 27.394531 C 37.304688 27.882812 36.851562 28.554688 36.441406 29.304688 C 36.441406 29.3125 36.441406 29.332031 36.433594 29.339844 C 36.425781 29.367188 36.40625 29.382812 36.390625 29.402344 C 36.347656 29.488281 36.292969 29.566406 36.25 29.65625 L 36.265625 29.636719 C 36.929688 29.027344 37.472656 28.632812 38.160156 28.3125 C 38.167969 28.300781 38.179688 28.285156 38.1875 28.277344 C 38.238281 28.214844 38.335938 28.136719 38.441406 28.050781 C 38.691406 27.832031 38.875 27.585938 39.148438 27.378906 C 39.703125 26.933594 40.210938 26.398438 40.898438 26.148438 C 41.1875 26.035156 41.582031 26.050781 41.886719 26.035156 C 42.007812 26.035156 42.148438 26.023438 42.269531 26 C 42.304688 26 42.375 25.988281 42.375 25.988281 C 42.375 25.988281 42.382812 25.988281 42.390625 25.988281 C 42.445312 25.988281 42.496094 26.023438 42.523438 26.078125 C 42.539062 26.128906 42.523438 26.199219 42.46875 26.234375 C 42.46875 26.234375 42.410156 26.269531 42.390625 26.296875 C 42.289062 26.382812 42.183594 26.53125 42.105469 26.652344 C 41.878906 26.992188 41.605469 27.332031 41.285156 27.585938 C 40.917969 27.875 40.515625 28.09375 40.097656 28.265625 C 39.871094 28.363281 39.636719 28.476562 39.375 28.484375 C 39.363281 28.484375 39.363281 28.484375 39.347656 28.484375 L 39.339844 28.484375 C 38.980469 28.484375 38.648438 28.414062 38.300781 28.554688 C 38.28125 28.554688 38.265625 28.554688 38.246094 28.554688 C 37.566406 28.886719 37.035156 29.277344 36.363281 29.917969 C 36.222656 30.046875 35.953125 30.378906 35.699219 30.839844 C 35.265625 31.929688 34.957031 33.066406 34.949219 34.058594 C 34.949219 34.296875 34.957031 34.566406 34.992188 34.808594 C 35.046875 35.054688 35.097656 35.308594 35.152344 35.5625 C 35.429688 36.824219 35.824219 38.074219 36.179688 39.320312 L 36.179688 39.304688 C 36.1875 39.03125 36.214844 38.761719 36.25 38.492188 C 36.25 38.484375 36.242188 38.457031 36.25 38.421875 C 36.25 38.421875 36.25 38.421875 36.25 38.40625 C 36.257812 38.378906 36.277344 38.308594 36.292969 38.230469 C 36.328125 38.046875 36.363281 37.855469 36.414062 37.671875 C 36.476562 37.410156 36.554688 37.140625 36.644531 36.871094 C 36.617188 36.78125 36.597656 36.617188 36.589844 36.433594 C 36.582031 36.320312 36.574219 36.207031 36.5625 36.09375 C 36.527344 35.980469 36.519531 35.867188 36.519531 35.742188 C 36.519531 35.710938 36.511719 35.683594 36.503906 35.648438 C 36.214844 34.835938 35.777344 34.15625 35.804688 33.25 C 35.804688 32.945312 35.804688 32.636719 35.769531 32.332031 C 35.769531 32.304688 35.769531 32.113281 35.804688 32.042969 C 35.839844 31.964844 35.890625 31.929688 35.945312 31.929688 C 35.945312 31.929688 35.945312 31.929688 35.953125 31.929688 C 35.972656 31.929688 36.03125 31.941406 36.074219 32 C 36.171875 32.113281 36.519531 32.707031 36.546875 32.75 C 36.894531 33.378906 37.027344 34.085938 36.992188 34.800781 C 36.972656 35.011719 36.90625 35.230469 36.851562 35.457031 C 36.824219 35.550781 36.808594 35.640625 36.800781 35.734375 C 36.824219 35.890625 36.84375 36.09375 36.851562 36.277344 L 36.851562 36.257812 C 37.097656 35.605469 37.375 34.96875 37.644531 34.367188 C 37.644531 34.355469 37.644531 34.347656 37.644531 34.339844 C 37.644531 34.304688 37.664062 34.253906 37.679688 34.183594 C 37.777344 33.859375 38.074219 33.1875 38.089844 33.066406 C 38.132812 32.648438 38.117188 32.261719 38.125 31.898438 C 38.132812 31.304688 38.222656 30.753906 38.753906 30.160156 C 38.945312 29.941406 39.15625 29.671875 39.3125 29.4375 C 39.328125 29.410156 39.339844 29.367188 39.355469 29.324219 C 39.375 29.269531 39.390625 29.226562 39.417969 29.199219 C 39.453125 29.148438 39.503906 29.132812 39.546875 29.132812 C 39.554688 29.132812 39.554688 29.132812 39.554688 29.132812 C 39.589844 29.132812 39.625 29.140625 39.660156 29.15625 C 39.714844 29.199219 39.765625 29.277344 39.800781 29.375 C 39.851562 29.539062 39.851562 29.769531 39.878906 29.863281 C 40.175781 31.339844 39.714844 32.0625 39.101562 32.804688 C 38.71875 33.265625 38.28125 33.730469 37.933594 34.402344 C 37.542969 35.246094 37.140625 36.179688 36.851562 37.140625 L 36.851562 37.132812 C 37.140625 36.6875 37.523438 36.300781 37.871094 35.910156 C 37.898438 35.882812 37.925781 35.847656 37.96875 35.8125 C 38.144531 35.457031 38.238281 35.082031 38.441406 34.800781 C 38.648438 34.515625 38.929688 34.277344 39.277344 34.015625 C 39.503906 33.84375 39.792969 33.753906 40.011719 33.582031 C 40.238281 33.398438 40.5 33.25 40.75 33.109375 C 40.769531 33.101562 40.882812 33.023438 40.945312 32.996094 C 40.980469 32.976562 41.023438 32.976562 41.03125 32.976562 C 41.109375 32.976562 41.152344 33.023438 41.171875 33.082031 C 41.222656 33.285156 41.179688 33.476562 41.09375 33.667969 C 41.023438 33.824219 40.933594 33.972656 40.867188 34.113281 C 40.613281 34.742188 39.851562 35.449219 39.214844 35.691406 C 39.03125 35.761719 38.824219 35.796875 38.613281 35.832031 C 38.429688 35.867188 38.273438 35.910156 38.144531 36.015625 C 38.125 36.03125 38.117188 36.039062 38.101562 36.050781 C 38.089844 36.058594 38.074219 36.074219 38.066406 36.09375 C 37.714844 36.484375 37.332031 36.871094 37.042969 37.324219 C 36.914062 37.523438 36.78125 37.742188 36.660156 37.953125 C 36.660156 37.960938 36.632812 38.003906 36.625 38.046875 C 36.609375 38.117188 36.589844 38.203125 36.5625 38.28125 C 36.398438 39.226562 36.390625 40.148438 36.6875 41.011719 C 36.695312 41.046875 36.695312 41.074219 36.6875 41.101562 C 36.835938 41.492188 37.078125 41.894531 37.289062 42.296875 C 37.566406 42.828125 37.804688 43.371094 37.785156 43.917969 C 37.785156 43.988281 37.714844 44.050781 37.644531 44.050781 C 37.566406 44.039062 37.507812 43.980469 37.515625 43.902344 C 37.53125 43.414062 37.304688 42.914062 37.050781 42.425781 C 36.78125 41.902344 36.46875 41.378906 36.335938 40.875 C 35.996094 39.554688 35.570312 38.230469 35.203125 36.886719 C 34.949219 36.609375 34.671875 36.242188 34.375 35.910156 C 34.023438 35.683594 33.125 35.125 32.4375 34.835938 C 32.289062 34.777344 32.160156 34.722656 32.042969 34.695312 L 32.035156 34.695312 C 32.019531 34.695312 32.011719 34.707031 31.992188 34.707031 C 31.992188 34.707031 31.984375 34.707031 31.984375 34.707031 C 31.957031 34.707031 31.886719 34.679688 31.863281 34.671875 L 31.851562 34.671875 C 31.828125 34.671875 31.808594 34.671875 31.792969 34.679688 C 31.6875 34.707031 31.574219 34.757812 31.460938 34.808594 C 31.320312 34.871094 31.179688 34.933594 31.023438 34.933594 C 30.945312 34.941406 30.867188 34.941406 30.789062 34.941406 L 30.769531 34.941406 C 30.394531 34.941406 30.019531 34.878906 29.59375 34.757812 C 29.035156 34.601562 28.519531 34.253906 28.023438 33.980469 C 27.847656 33.878906 27.605469 33.84375 27.414062 33.796875 C 27.378906 33.789062 27.308594 33.789062 27.246094 33.796875 C 27.238281 33.796875 27.230469 33.796875 27.21875 33.796875 C 27.160156 33.789062 27.105469 33.773438 27.082031 33.753906 C 27.054688 33.730469 27.027344 33.695312 27.019531 33.660156 C 27.019531 33.625 27.019531 33.582031 27.054688 33.535156 C 27.117188 33.441406 27.21875 33.371094 27.367188 33.320312 C 27.550781 33.25 27.8125 33.214844 28.101562 33.207031 C 28.859375 33.1875 29.898438 33.34375 30.585938 33.546875 C 30.902344 33.640625 31.15625 33.738281 31.277344 33.84375 C 31.375 33.921875 31.453125 34 31.519531 34.09375 C 31.601562 34.191406 31.679688 34.304688 31.808594 34.410156 C 31.828125 34.410156 31.851562 34.410156 31.871094 34.410156 C 31.878906 34.410156 31.898438 34.410156 31.90625 34.410156 C 32.078125 34.425781 32.296875 34.488281 32.542969 34.59375 C 32.890625 34.742188 33.292969 34.949219 33.648438 35.160156 L 33.640625 35.152344 C 33.640625 35.152344 33.632812 35.140625 33.632812 35.140625 C 33.535156 35.054688 33.433594 34.96875 33.320312 34.863281 C 33.222656 34.808594 33.136719 34.730469 33.039062 34.644531 C 32.253906 34.015625 31.214844 33.238281 30.414062 32.445312 C 30.394531 32.4375 30.378906 32.421875 30.359375 32.402344 C 30.300781 32.316406 30.179688 32.261719 30.046875 32.21875 C 29.882812 32.148438 29.722656 32.105469 29.609375 32.042969 C 28.894531 31.660156 28.214844 30.953125 27.847656 30.230469 C 27.550781 29.664062 27.394531 29.042969 27.125 28.476562 C 27.054688 28.355469 26.90625 28.128906 26.90625 28.128906 C 26.871094 28.066406 26.871094 27.996094 26.914062 27.953125 C 26.949219 27.925781 26.984375 27.917969 27.019531 27.917969 C 27.046875 27.917969 27.0625 27.917969 27.097656 27.9375 C 27.097656 27.9375 27.316406 28.082031 27.429688 28.164062 C 27.9375 28.503906 28.371094 28.914062 28.84375 29.304688 C 29.375 29.75 29.664062 30.222656 29.898438 30.726562 C 30.117188 31.191406 30.28125 31.6875 30.578125 32.210938 C 31.199219 32.828125 31.976562 33.457031 32.671875 34 L 32.671875 33.992188 C 32.636719 33.878906 32.613281 33.753906 32.601562 33.617188 C 32.578125 33.285156 32.351562 33.039062 32.125 32.8125 C 31.851562 32.550781 31.566406 32.304688 31.433594 31.992188 C 31.277344 31.617188 31.304688 31.660156 31.242188 31.355469 C 31.191406 31.113281 31.144531 30.867188 31.09375 30.613281 C 31.03125 30.308594 30.964844 29.984375 30.902344 29.671875 C 30.894531 29.636719 30.847656 29.558594 30.847656 29.558594 C 30.816406 29.507812 30.816406 29.4375 30.867188 29.382812 C 30.917969 29.339844 30.996094 29.339844 31.042969 29.375 C 31.042969 29.375 31.292969 29.574219 31.417969 29.679688 C 31.949219 30.152344 32.394531 30.726562 32.714844 31.355469 C 32.976562 31.863281 32.945312 32.421875 32.910156 32.96875 C 32.890625 33.386719 32.875 33.808594 33.066406 34.191406 C 33.125 34.296875 33.195312 34.390625 33.265625 34.460938 C 33.34375 34.523438 33.421875 34.59375 33.5 34.652344 C 33.535156 34.679688 33.570312 34.707031 33.605469 34.722656 C 33.632812 34.742188 33.660156 34.765625 33.667969 34.792969 C 33.738281 34.84375 33.789062 34.890625 33.851562 34.941406 C 34.261719 35.316406 34.695312 35.832031 35.089844 36.292969 L 35.082031 36.277344 C 35.019531 36.058594 34.976562 35.839844 34.925781 35.628906 C 34.898438 35.515625 34.871094 35.402344 34.855469 35.289062 C 34.820312 35.160156 34.792969 35.019531 34.765625 34.878906 C 34.503906 33.570312 34.304688 32.226562 34.148438 30.882812 C 34.113281 30.867188 34.085938 30.832031 34.078125 30.789062 C 34 29.925781 33.371094 28.34375 32.601562 26.828125 C 32.332031 26.417969 32.042969 26.183594 31.617188 25.964844 C 31.355469 25.832031 31.078125 25.660156 30.804688 25.527344 C 30.667969 25.511719 30.464844 25.5 30.324219 25.527344 C 29.871094 25.625 29.507812 25.738281 29.175781 25.789062 C 29.042969 25.816406 28.902344 25.824219 28.773438 25.832031 L 28.765625 25.832031 C 28.5625 25.832031 28.355469 25.796875 28.144531 25.703125 C 27.867188 25.589844 27.570312 25.363281 27.230469 24.96875 C 27.160156 24.890625 27.019531 24.785156 26.90625 24.671875 C 26.820312 24.578125 26.75 24.464844 26.722656 24.375 C 26.722656 24.332031 26.722656 24.289062 26.757812 24.253906 C 26.785156 24.210938 26.871094 24.175781 26.898438 24.167969 C 27.132812 24.125 27.367188 24.089844 27.613281 24.089844 L 27.621094 24.089844 C 27.707031 24.089844 27.804688 24.097656 27.890625 24.105469 C 28.609375 24.191406 29.3125 24.191406 29.976562 24.53125 C 30.117188 24.601562 30.378906 24.847656 30.597656 25.039062 C 30.71875 25.144531 30.824219 25.25 30.882812 25.265625 C 30.902344 25.273438 30.917969 25.285156 30.929688 25.285156 C 31.207031 25.421875 31.488281 25.589844 31.75 25.726562 C 31.898438 25.808594 32.019531 25.875 32.140625 25.964844 L 32.132812 25.945312 C 31.476562 24.769531 30.769531 23.746094 30.230469 23.292969 C 30.132812 23.207031 29.925781 23.09375 29.679688 22.953125 C 29.59375 22.9375 29.507812 22.929688 29.417969 22.917969 C 29.234375 22.917969 29.042969 22.917969 28.871094 22.894531 C 28.371094 22.8125 27.847656 22.621094 27.414062 22.359375 C 26.539062 21.863281 26.199219 21.382812 25.859375 20.816406 C 25.640625 20.46875 25.433594 20.074219 25.082031 19.628906 C 25.039062 19.578125 25.046875 19.523438 25.054688 19.507812 C 25.066406 19.472656 25.082031 19.445312 25.117188 19.429688 C 25.144531 19.410156 25.160156 19.402344 25.203125 19.402344 C 25.222656 19.402344 25.238281 19.410156 25.265625 19.429688 C 25.300781 19.4375 25.371094 19.480469 25.449219 19.542969 C 25.554688 19.605469 25.695312 19.648438 25.808594 19.671875 C 26.25 19.777344 26.695312 19.910156 27.152344 20.03125 C 27.621094 20.152344 28.003906 20.449219 28.34375 20.816406 C 28.675781 21.15625 28.957031 21.550781 29.234375 21.882812 C 29.453125 22.132812 29.679688 22.5 29.941406 22.734375 C 29.949219 22.734375 29.960938 22.734375 29.976562 22.734375 C 30.019531 22.753906 30.046875 22.78125 30.0625 22.8125 C 30.238281 22.917969 30.472656 23.136719 30.605469 23.25 C 30.621094 23.257812 30.632812 23.285156 30.640625 23.304688 C 30.988281 23.660156 31.375 24.183594 31.773438 24.792969 L 31.773438 24.785156 C 31.636719 24.304688 31.519531 23.816406 31.425781 23.335938 C 31.398438 23.207031 31.398438 23.109375 31.269531 22.699219 C 30.816406 22.4375 30.300781 21.882812 30.0625 21.242188 C 29.976562 21.015625 29.949219 20.773438 29.941406 20.546875 C 29.925781 20.34375 29.925781 20.152344 29.882812 20.03125 C 29.8125 19.8125 29.800781 19.578125 29.707031 19.367188 C 29.679688 19.316406 29.644531 19.230469 29.609375 19.175781 C 29.609375 19.167969 29.585938 19.140625 29.574219 19.125 C 29.558594 19.097656 29.550781 19.089844 29.550781 19.070312 C 29.53125 19.019531 29.558594 18.984375 29.574219 18.957031 C 29.59375 18.941406 29.609375 18.914062 29.65625 18.90625 C 29.714844 18.886719 29.800781 18.90625 29.917969 18.984375 C 30.179688 19.167969 30.621094 19.691406 30.710938 19.820312 C 30.875 20.058594 31.078125 20.230469 31.257812 20.449219 C 31.589844 20.878906 31.703125 21.21875 31.703125 21.757812 C 31.703125 21.960938 31.660156 22.097656 31.617188 22.230469 C 31.582031 22.34375 31.546875 22.457031 31.546875 22.632812 C 31.546875 22.648438 31.546875 22.65625 31.539062 22.667969 C 31.667969 23.058594 31.667969 23.164062 31.695312 23.292969 C 31.84375 24.007812 32.011719 24.761719 32.28125 25.433594 C 32.375 25.648438 32.453125 25.859375 32.535156 26.078125 C 32.613281 26.21875 32.683594 26.355469 32.75 26.496094 C 32.785156 26.566406 32.828125 26.636719 32.863281 26.714844 C 32.875 26.714844 32.875 26.730469 32.875 26.742188 C 32.898438 26.773438 32.925781 26.820312 32.953125 26.863281 C 32.960938 26.878906 32.96875 26.90625 32.96875 26.933594 C 33.378906 27.753906 33.738281 28.582031 34 29.304688 L 33.992188 29.261719 C 33.695312 26.199219 33.519531 23.101562 33.160156 20.074219 C 33.058594 19.210938 32.988281 18.339844 32.890625 17.476562 C 32.726562 17.039062 32.648438 16.847656 32.359375 16.105469 C 32.28125 15.90625 32.140625 15.710938 31.976562 15.582031 C 31.90625 15.53125 31.835938 15.460938 31.773438 15.390625 C 30.746094 15.347656 29.496094 15.101562 28.816406 14.125 C 28.589844 13.800781 28.09375 13.09375 28.023438 12.945312 C 27.980469 12.867188 28.003906 12.808594 28.015625 12.789062 C 28.03125 12.765625 28.050781 12.746094 28.074219 12.738281 C 28.09375 12.730469 28.109375 12.71875 28.144531 12.71875 C 28.171875 12.71875 28.222656 12.738281 28.285156 12.753906 C 28.519531 12.824219 29.042969 13.042969 29.226562 13.085938 C 29.621094 13.164062 29.960938 13.199219 30.292969 13.4375 C 30.917969 13.878906 30.867188 13.898438 31.339844 14.414062 C 31.601562 14.710938 31.835938 15.121094 32.140625 15.382812 C 32.351562 15.546875 32.523438 15.773438 32.613281 16.019531 C 32.671875 16.167969 32.726562 16.296875 32.761719 16.402344 L 32.761719 16.382812 C 32.636719 15.398438 32.464844 14.429688 32.175781 13.480469 C 32.160156 13.402344 32.125 13.3125 32.105469 13.234375 C 32.105469 13.234375 32.105469 13.234375 32.105469 13.226562 C 31.851562 12.265625 31.75 11.253906 31.433594 10.3125 C 31.042969 9.824219 30.507812 9.316406 30.0625 9.003906 C 29.558594 8.65625 29.226562 8.042969 28.816406 7.589844 C 28.667969 7.425781 28.539062 7.234375 28.371094 7.085938 C 28.34375 7.050781 28.152344 6.902344 28.09375 6.804688 C 28.03125 6.734375 28.039062 6.664062 28.058594 6.628906 C 28.074219 6.585938 28.128906 6.535156 28.199219 6.515625 C 28.257812 6.492188 28.363281 6.492188 28.390625 6.492188 C 28.441406 6.480469 28.484375 6.480469 28.527344 6.480469 L 28.546875 6.480469 C 29.050781 6.492188 29.332031 6.789062 29.75 7.09375 C 30.554688 7.6875 30.945312 7.992188 31.179688 8.382812 C 31.417969 8.777344 31.503906 9.265625 31.667969 10.242188 C 31.667969 10.261719 31.667969 10.277344 31.667969 10.292969 C 31.871094 10.949219 31.984375 11.636719 32.125 12.308594 Z M 32.125 12.300781 " fill-opacity="1" fill-rule="evenodd"/></g><path fill="#868d89" d="M 21.828125 46.824219 L 23.074219 46.824219 C 23.476562 46.824219 23.78125 46.921875 24 47.101562 C 24.21875 47.296875 24.324219 47.558594 24.324219 47.898438 C 24.324219 48.253906 24.21875 48.535156 24 48.734375 C 23.78125 48.925781 23.476562 49.023438 23.074219 49.023438 L 22.351562 49.023438 L 22.351562 49.972656 L 21.828125 49.972656 Z M 22.351562 47.304688 L 22.351562 48.550781 L 23.058594 48.550781 C 23.566406 48.550781 23.816406 48.34375 23.816406 47.914062 C 23.816406 47.503906 23.566406 47.304688 23.058594 47.304688 Z M 22.351562 47.304688 " fill-opacity="1" fill-rule="nonzero"/><path fill="#868d89" d="M 27.777344 49.265625 L 26.191406 49.265625 L 25.894531 49.972656 L 25.34375 49.972656 L 26.730469 46.824219 L 27.273438 46.824219 L 28.652344 49.972656 L 28.082031 49.972656 Z M 27.578125 48.785156 L 26.984375 47.390625 L 26.390625 48.785156 Z M 27.578125 48.785156 " fill-opacity="1" fill-rule="nonzero"/><path fill="#868d89" d="M 31.957031 49.972656 L 31.382812 49.023438 C 31.355469 49.023438 31.304688 49.023438 31.242188 49.023438 L 30.492188 49.023438 L 30.492188 49.972656 L 29.96875 49.972656 L 29.96875 46.824219 L 31.242188 46.824219 C 31.644531 46.824219 31.957031 46.921875 32.175781 47.101562 C 32.402344 47.296875 32.507812 47.558594 32.507812 47.898438 C 32.507812 48.148438 32.453125 48.367188 32.339844 48.542969 C 32.226562 48.71875 32.070312 48.839844 31.863281 48.925781 L 32.558594 49.972656 Z M 30.492188 48.550781 L 31.242188 48.550781 C 31.75 48.550781 32.011719 48.34375 32.011719 47.914062 C 32.011719 47.503906 31.75 47.304688 31.242188 47.304688 L 30.492188 47.304688 Z M 30.492188 48.550781 " fill-opacity="1" fill-rule="nonzero"/><path fill="#868d89" d="M 37.15625 49.949219 L 37.375 50.324219 C 37.113281 50.550781 36.824219 50.664062 36.519531 50.664062 C 36.320312 50.664062 36.136719 50.609375 35.960938 50.488281 C 35.789062 50.375 35.640625 50.210938 35.515625 49.992188 C 35.046875 49.992188 34.652344 49.84375 34.332031 49.527344 C 34.015625 49.222656 33.851562 48.847656 33.851562 48.402344 C 33.851562 47.949219 34.015625 47.574219 34.332031 47.269531 C 34.652344 46.964844 35.054688 46.816406 35.515625 46.816406 C 35.988281 46.816406 36.390625 46.964844 36.703125 47.269531 C 37.027344 47.574219 37.191406 47.949219 37.191406 48.402344 C 37.191406 48.761719 37.085938 49.074219 36.878906 49.34375 C 36.667969 49.625 36.398438 49.808594 36.058594 49.914062 C 36.234375 50.113281 36.40625 50.210938 36.582031 50.210938 C 36.746094 50.210938 36.9375 50.121094 37.15625 49.949219 Z M 34.722656 47.609375 C 34.503906 47.828125 34.390625 48.089844 34.390625 48.402344 C 34.390625 48.71875 34.503906 48.980469 34.722656 49.195312 C 34.949219 49.414062 35.210938 49.519531 35.527344 49.519531 C 35.832031 49.519531 36.09375 49.414062 36.3125 49.195312 C 36.539062 48.980469 36.644531 48.71875 36.644531 48.402344 C 36.644531 48.089844 36.539062 47.828125 36.3125 47.609375 C 36.09375 47.398438 35.832031 47.285156 35.527344 47.285156 C 35.210938 47.285156 34.949219 47.398438 34.722656 47.609375 Z M 34.722656 47.609375 " fill-opacity="1" fill-rule="nonzero"/><path fill="#868d89" d="M 41.398438 46.824219 L 41.398438 48.664062 C 41.398438 49.074219 41.273438 49.40625 41.03125 49.640625 C 40.785156 49.878906 40.457031 49.992188 40.027344 49.992188 C 39.601562 49.992188 39.269531 49.878906 39.023438 49.640625 C 38.78125 49.40625 38.65625 49.074219 38.65625 48.664062 L 38.65625 46.824219 L 39.191406 46.824219 L 39.191406 48.664062 C 39.191406 48.933594 39.261719 49.144531 39.417969 49.292969 C 39.566406 49.441406 39.773438 49.519531 40.035156 49.519531 C 40.289062 49.519531 40.488281 49.441406 40.636719 49.292969 C 40.785156 49.144531 40.867188 48.933594 40.867188 48.664062 L 40.867188 46.824219 Z M 41.398438 46.824219 " fill-opacity="1" fill-rule="nonzero"/><path fill="#868d89" d="M 45.296875 47.304688 L 43.578125 47.304688 L 43.578125 48.148438 L 45.121094 48.148438 L 45.121094 48.628906 L 43.578125 48.628906 L 43.578125 49.492188 L 45.359375 49.492188 L 45.359375 49.972656 L 43.054688 49.972656 L 43.054688 46.824219 L 45.296875 46.824219 Z M 45.296875 47.304688 " fill-opacity="1" fill-rule="nonzero"/><path fill="#868d89" d="M 20.84375 53.007812 L 19.761719 53.007812 L 19.535156 53.523438 L 19.316406 53.523438 L 20.207031 51.585938 L 20.40625 51.585938 L 21.289062 53.523438 L 21.078125 53.523438 Z M 20.773438 52.84375 L 20.300781 51.804688 L 19.839844 52.84375 Z M 20.773438 52.84375 " fill-opacity="1" fill-rule="nonzero"/><path fill="#868d89" d="M 23.851562 52.53125 C 23.976562 52.554688 24.078125 52.609375 24.148438 52.695312 C 24.21875 52.773438 24.253906 52.878906 24.253906 53.007812 C 24.253906 53.175781 24.191406 53.304688 24.070312 53.394531 C 23.949219 53.480469 23.765625 53.523438 23.519531 53.523438 L 22.632812 53.523438 L 22.632812 51.585938 L 23.46875 51.585938 C 23.6875 51.585938 23.851562 51.632812 23.964844 51.71875 C 24.089844 51.804688 24.148438 51.929688 24.148438 52.09375 C 24.148438 52.199219 24.125 52.285156 24.070312 52.363281 C 24.019531 52.433594 23.949219 52.496094 23.851562 52.53125 Z M 22.839844 51.761719 L 22.839844 52.460938 L 23.453125 52.460938 C 23.609375 52.460938 23.730469 52.433594 23.816406 52.371094 C 23.894531 52.3125 23.941406 52.222656 23.941406 52.109375 C 23.941406 51.996094 23.894531 51.910156 23.816406 51.847656 C 23.730469 51.789062 23.609375 51.761719 23.453125 51.761719 Z M 23.519531 53.359375 C 23.695312 53.359375 23.828125 53.332031 23.914062 53.269531 C 24 53.210938 24.042969 53.113281 24.042969 52.992188 C 24.042969 52.746094 23.871094 52.625 23.519531 52.625 L 22.839844 52.625 L 22.839844 53.359375 Z M 23.519531 53.359375 " fill-opacity="1" fill-rule="nonzero"/><path fill="#868d89" d="M 26.949219 53.007812 L 25.875 53.007812 L 25.640625 53.523438 L 25.433594 53.523438 L 26.3125 51.585938 L 26.511719 51.585938 L 27.402344 53.523438 L 27.183594 53.523438 Z M 26.878906 52.84375 L 26.417969 51.804688 L 25.945312 52.84375 Z M 26.878906 52.84375 " fill-opacity="1" fill-rule="nonzero"/><path fill="#868d89" d="M 30.117188 53.351562 L 30.117188 53.523438 L 28.746094 53.523438 L 28.746094 51.585938 L 30.074219 51.585938 L 30.074219 51.769531 L 28.949219 51.769531 L 28.949219 52.460938 L 29.949219 52.460938 L 29.949219 52.625 L 28.949219 52.625 L 28.949219 53.351562 Z M 30.117188 53.351562 " fill-opacity="1" fill-rule="nonzero"/><path fill="#868d89" d="M 31.992188 51.769531 L 31.3125 51.769531 L 31.3125 51.585938 L 32.875 51.585938 L 32.875 51.769531 L 32.191406 51.769531 L 32.191406 53.523438 L 31.992188 53.523438 Z M 31.992188 51.769531 " fill-opacity="1" fill-rule="nonzero"/><path fill="#868d89" d="M 35.59375 53.351562 L 35.59375 53.523438 L 34.226562 53.523438 L 34.226562 51.585938 L 35.550781 51.585938 L 35.550781 51.769531 L 34.425781 51.769531 L 34.425781 52.460938 L 35.429688 52.460938 L 35.429688 52.625 L 34.425781 52.625 L 34.425781 53.351562 Z M 35.59375 53.351562 " fill-opacity="1" fill-rule="nonzero"/><path fill="#868d89" d="M 37.472656 51.769531 L 36.789062 51.769531 L 36.789062 51.585938 L 38.351562 51.585938 L 38.351562 51.769531 L 37.671875 51.769531 L 37.671875 53.523438 L 37.472656 53.523438 Z M 37.472656 51.769531 " fill-opacity="1" fill-rule="nonzero"/><path fill="#868d89" d="M 40.480469 53.542969 C 40.226562 53.542969 40.035156 53.472656 39.898438 53.324219 C 39.757812 53.183594 39.6875 52.976562 39.6875 52.695312 L 39.6875 51.585938 L 39.886719 51.585938 L 39.886719 52.695312 C 39.886719 52.914062 39.941406 53.089844 40.035156 53.191406 C 40.140625 53.304688 40.289062 53.359375 40.480469 53.359375 C 40.671875 53.359375 40.820312 53.304688 40.925781 53.191406 C 41.023438 53.089844 41.074219 52.914062 41.074219 52.695312 L 41.074219 51.585938 L 41.273438 51.585938 L 41.273438 52.695312 C 41.273438 52.976562 41.207031 53.183594 41.066406 53.324219 C 40.925781 53.472656 40.734375 53.542969 40.480469 53.542969 Z M 40.480469 53.542969 " fill-opacity="1" fill-rule="nonzero"/><path fill="#868d89" d="M 44.136719 52.53125 C 44.257812 52.554688 44.355469 52.609375 44.425781 52.695312 C 44.496094 52.773438 44.53125 52.878906 44.53125 53.007812 C 44.53125 53.175781 44.46875 53.304688 44.347656 53.394531 C 44.222656 53.480469 44.039062 53.523438 43.804688 53.523438 L 42.914062 53.523438 L 42.914062 51.585938 L 43.753906 51.585938 C 43.960938 51.585938 44.136719 51.632812 44.25 51.71875 C 44.371094 51.804688 44.433594 51.929688 44.433594 52.09375 C 44.433594 52.199219 44.40625 52.285156 44.355469 52.363281 C 44.300781 52.433594 44.222656 52.496094 44.136719 52.53125 Z M 43.117188 51.761719 L 43.117188 52.460938 L 43.734375 52.460938 C 43.894531 52.460938 44.015625 52.433594 44.09375 52.371094 C 44.179688 52.3125 44.222656 52.222656 44.222656 52.109375 C 44.222656 51.996094 44.179688 51.910156 44.09375 51.847656 C 44.015625 51.789062 43.894531 51.761719 43.734375 51.761719 Z M 43.796875 53.359375 C 43.972656 53.359375 44.101562 53.332031 44.199219 53.269531 C 44.285156 53.210938 44.328125 53.113281 44.328125 52.992188 C 44.328125 52.746094 44.15625 52.625 43.796875 52.625 L 43.117188 52.625 L 43.117188 53.359375 Z M 43.796875 53.359375 " fill-opacity="1" fill-rule="nonzero"/><path fill="#868d89" d="M 47.234375 53.007812 L 46.152344 53.007812 L 45.925781 53.523438 L 45.707031 53.523438 L 46.597656 51.585938 L 46.796875 51.585938 L 47.679688 53.523438 L 47.46875 53.523438 Z M 47.164062 52.84375 L 46.691406 51.804688 L 46.230469 52.84375 Z M 47.164062 52.84375 " fill-opacity="1" fill-rule="nonzero"/></svg>