<svg xmlns="http://www.w3.org/2000/svg" xmlns:xlink="http://www.w3.org/1999/xlink" width="500" zoomAndPan="magnify" viewBox="0 0 375 374.999991" height="500" preserveAspectRatio="xMidYMid meet" version="1.0"><defs><g/><clipPath id="43a2406860"><path d="M 68.378906 14.28125 L 306.878906 14.28125 L 306.878906 213.03125 L 68.378906 213.03125 Z M 68.378906 14.28125 " clip-rule="nonzero"/></clipPath></defs><path fill="#ffffff" d="M 300.472656 62.300781 C 301.109375 62.175781 301.757812 62.050781 302.410156 61.933594 C 301.75 62.050781 301.109375 62.175781 300.472656 62.300781 Z M 300.472656 62.300781 " fill-opacity="1" fill-rule="evenodd"/><path fill="#ffffff" d="M 299.546875 62.480469 C 299.847656 62.421875 300.148438 62.363281 300.449219 62.304688 C 300.148438 62.363281 299.847656 62.421875 299.546875 62.480469 Z M 299.546875 62.480469 " fill-opacity="1" fill-rule="evenodd"/><path fill="#ffffff" d="M 298.582031 62.683594 C 298.882812 62.617188 299.1875 62.558594 299.496094 62.496094 C 299.1875 62.558594 298.882812 62.617188 298.582031 62.683594 Z M 298.582031 62.683594 " fill-opacity="1" fill-rule="evenodd"/><path fill="#ffffff" d="M 297.664062 62.878906 C 297.957031 62.8125 298.257812 62.746094 298.558594 62.6875 C 298.257812 62.753906 297.964844 62.8125 297.664062 62.878906 Z M 297.664062 62.878906 " fill-opacity="1" fill-rule="evenodd"/><path fill="#ffffff" d="M 296.75 63.078125 C 297.042969 63.007812 297.34375 62.941406 297.644531 62.878906 C 297.34375 62.941406 297.042969 63.007812 296.75 63.078125 Z M 296.75 63.078125 " fill-opacity="1" fill-rule="evenodd"/><path fill="#ffffff" d="M 295.871094 63.285156 C 296.160156 63.214844 296.449219 63.148438 296.75 63.078125 C 296.457031 63.140625 296.167969 63.214844 295.871094 63.285156 Z M 295.871094 63.285156 " fill-opacity="1" fill-rule="evenodd"/><path fill="#f8c703" d="M 121.035156 38.511719 C 117.085938 91.632812 143.246094 129.128906 178.265625 139.484375 C 187.164062 128.398438 196.28125 116.117188 205.625 102.648438 C 170.457031 93.433594 142.253906 72.054688 121.035156 38.511719 Z M 121.035156 38.511719 " fill-opacity="1" fill-rule="evenodd"/><g clip-path="url(#43a2406860)"><path fill="#ffffff" d="M 174.785156 135.820312 C 139.761719 125.464844 113.605469 87.96875 117.554688 34.847656 C 138.773438 68.390625 166.972656 89.765625 202.144531 98.984375 C 192.800781 112.457031 183.675781 124.734375 174.785156 135.820312 Z M 203.609375 96.820312 C 222.226562 69.652344 239.988281 53.515625 256.882812 48.433594 C 276.496094 42.523438 286.105469 57.097656 303.371094 59.648438 C 286.382812 60.332031 276.300781 45.375 257.757812 52.238281 C 241.027344 58.421875 226.25 75.378906 209.691406 98.589844 C 224.796875 102.59375 241.273438 104.316406 259.128906 103.753906 C 240.890625 104.953125 223.964844 103.855469 208.351562 100.472656 C 204.488281 105.941406 200.511719 111.738281 196.394531 117.8125 C 191.398438 124.738281 186.425781 131.289062 181.484375 137.460938 C 206.21875 142.191406 234.5 133.800781 259.464844 108.558594 C 237.308594 137.675781 205.921875 147.605469 177.667969 142.152344 C 139.785156 188.074219 103.410156 211.722656 68.527344 213.113281 C 98.414062 211.453125 132.550781 187.261719 170.9375 140.550781 C 129.023438 128.605469 96.558594 82.082031 116.515625 14.285156 C 136.226562 57.273438 165.253906 84.792969 203.597656 96.832031 Z M 111.085938 200.765625 C 142.425781 194.402344 174.472656 178.78125 207.234375 153.894531 C 179.5625 181.183594 147.515625 196.8125 111.085938 200.765625 Z M 265.292969 93.117188 C 253.925781 135.6875 223.304688 155.285156 173.429688 151.910156 C 227.707031 161.441406 260.046875 141.925781 270.457031 93.363281 C 274.480469 74.558594 287.984375 64.042969 306.457031 59.808594 C 282.5625 63.679688 271.359375 70.363281 265.292969 93.109375 Z M 265.292969 93.117188 " fill-opacity="1" fill-rule="evenodd"/></g><g fill="#ffffff" fill-opacity="1"><g transform="translate(73.25175, 289.647425)"><g><path d="M 19.046875 -21.40625 L 19.046875 -30.359375 L 33.390625 -30.359375 L 33.390625 -0.984375 C 31.617188 -0.523438 29.46875 -0.144531 26.9375 0.15625 C 24.40625 0.457031 22.054688 0.609375 19.890625 0.609375 C 15.078125 0.609375 11.492188 -0.109375 9.140625 -1.546875 C 6.785156 -2.992188 5.164062 -5.578125 4.28125 -9.296875 C 3.394531 -13.015625 2.953125 -18.617188 2.953125 -26.109375 C 2.953125 -33.546875 3.421875 -39.125 4.359375 -42.84375 C 5.296875 -46.5625 7.003906 -49.148438 9.484375 -50.609375 C 11.960938 -52.078125 15.679688 -52.8125 20.640625 -52.8125 C 22.660156 -52.8125 24.859375 -52.660156 27.234375 -52.359375 C 29.617188 -52.054688 31.644531 -51.703125 33.3125 -51.296875 L 33.3125 -42.71875 C 28.96875 -43.332031 25.804688 -43.640625 23.828125 -43.640625 C 20.390625 -43.640625 18.023438 -43.359375 16.734375 -42.796875 C 15.441406 -42.242188 14.554688 -40.816406 14.078125 -38.515625 C 13.597656 -36.210938 13.359375 -32.078125 13.359375 -26.109375 C 13.359375 -20.546875 13.507812 -16.585938 13.8125 -14.234375 C 14.113281 -11.878906 14.707031 -10.296875 15.59375 -9.484375 C 16.476562 -8.671875 17.984375 -8.265625 20.109375 -8.265625 C 20.566406 -8.265625 21.78125 -8.34375 23.75 -8.5 L 23.75 -21.40625 Z M 19.046875 -21.40625 "/></g></g></g><g fill="#ffffff" fill-opacity="1"><g transform="translate(120.827506, 289.647425)"><g><path d="M 34.765625 -52.21875 L 34.765625 -23.140625 C 34.765625 -16.265625 34.472656 -11.269531 33.890625 -8.15625 C 33.304688 -5.039062 31.9375 -2.800781 29.78125 -1.4375 C 27.632812 -0.0703125 24.109375 0.609375 19.203125 0.609375 C 14.296875 0.609375 10.765625 -0.0703125 8.609375 -1.4375 C 6.460938 -2.800781 5.097656 -5.039062 4.515625 -8.15625 C 3.929688 -11.269531 3.640625 -16.265625 3.640625 -23.140625 L 3.640625 -52.21875 L 14.046875 -52.21875 L 14.046875 -19.65625 C 14.046875 -15.957031 14.132812 -13.410156 14.3125 -12.015625 C 14.488281 -10.628906 14.914062 -9.707031 15.59375 -9.25 C 16.28125 -8.800781 17.484375 -8.578125 19.203125 -8.578125 C 20.921875 -8.578125 22.109375 -8.800781 22.765625 -9.25 C 23.421875 -9.707031 23.835938 -10.617188 24.015625 -11.984375 C 24.191406 -13.359375 24.28125 -15.914062 24.28125 -19.65625 L 24.28125 -52.21875 Z M 8.65625 -56.90625 L 8.65625 -57.515625 L 14.34375 -66.859375 L 24.140625 -66.859375 L 29.90625 -57.515625 L 29.90625 -56.90625 L 23.15625 -56.90625 L 19.203125 -62.296875 L 15.34375 -56.90625 Z M 8.65625 -56.90625 "/></g></g></g><g fill="#ffffff" fill-opacity="1"><g transform="translate(169.844856, 289.647425)"><g><path d="M 12.375 0 L 12.375 -18.0625 L 0 -52.21875 L 10.703125 -52.21875 L 17.53125 -29.671875 L 18.21875 -29.671875 L 24.8125 -52.21875 L 35.140625 -52.21875 L 22.765625 -18.0625 L 22.765625 0 Z M 12.375 0 "/></g></g></g><g fill="#ffffff" fill-opacity="1"><g transform="translate(215.599659, 289.647425)"><g><path d="M 25.125 0 L 20.03125 -18.21875 L 14.421875 -18.21875 L 14.421875 0 L 3.953125 0 L 3.953125 -52.21875 L 21.546875 -52.21875 C 25.296875 -52.21875 28.117188 -51.582031 30.015625 -50.3125 C 31.910156 -49.050781 33.1875 -47.226562 33.84375 -44.84375 C 34.5 -42.46875 34.828125 -39.285156 34.828125 -35.296875 C 34.828125 -31.492188 34.484375 -28.351562 33.796875 -25.875 C 33.117188 -23.394531 31.742188 -21.523438 29.671875 -20.265625 L 35.96875 0 Z M 19.046875 -27.25 C 20.710938 -27.25 21.898438 -27.4375 22.609375 -27.8125 C 23.316406 -28.195312 23.785156 -28.90625 24.015625 -29.9375 C 24.242188 -30.976562 24.359375 -32.738281 24.359375 -35.21875 C 24.359375 -37.644531 24.242188 -39.363281 24.015625 -40.375 C 23.785156 -41.382812 23.316406 -42.078125 22.609375 -42.453125 C 21.898438 -42.835938 20.710938 -43.03125 19.046875 -43.03125 L 14.421875 -43.03125 L 14.421875 -27.25 Z M 19.046875 -27.25 "/></g></g></g><g fill="#ffffff" fill-opacity="1"><g transform="translate(263.706524, 289.647425)"><g><path d="M 26.796875 0 L 24.734375 -10.703125 L 13.046875 -10.703125 L 11 0 L 0.609375 0 L 11.390625 -52.21875 L 26.640625 -52.21875 L 37.40625 0 Z M 19.125 -42.34375 L 18.671875 -42.34375 L 14.578125 -19.734375 L 23.140625 -19.734375 Z M 14.03125 -56.921875 L 14.03125 -57.296875 L 18.0625 -68 L 27.765625 -68 L 27.765625 -67.609375 L 21.78125 -56.921875 Z M 14.03125 -56.921875 "/></g></g></g><g fill="#f8c703" fill-opacity="1"><g transform="translate(43.996209, 350.099646)"><g><path d="M 2.046875 -22.6875 L 7.46875 -22.6875 L 7.65625 -20.015625 L 8 -20.015625 C 8.625 -22.035156 10.171875 -23.046875 12.640625 -23.046875 C 14.085938 -23.046875 15.21875 -22.710938 16.03125 -22.046875 C 16.851562 -21.378906 17.441406 -20.210938 17.796875 -18.546875 C 18.148438 -16.890625 18.328125 -14.503906 18.328125 -11.390625 C 18.328125 -8.335938 18.160156 -5.976562 17.828125 -4.3125 C 17.503906 -2.65625 16.941406 -1.460938 16.140625 -0.734375 C 15.347656 -0.00390625 14.207031 0.359375 12.71875 0.359375 C 10.320312 0.359375 8.796875 -0.578125 8.140625 -2.453125 L 7.78125 -2.453125 L 7.78125 8.71875 L 2.046875 8.71875 Z M 10.140625 -4.796875 C 10.941406 -4.796875 11.5 -4.914062 11.8125 -5.15625 C 12.125 -5.394531 12.332031 -5.9375 12.4375 -6.78125 C 12.539062 -7.625 12.59375 -9.144531 12.59375 -11.34375 C 12.59375 -13.539062 12.539062 -15.0625 12.4375 -15.90625 C 12.332031 -16.75 12.125 -17.285156 11.8125 -17.515625 C 11.5 -17.753906 10.941406 -17.875 10.140625 -17.875 C 9.515625 -17.875 9.039062 -17.765625 8.71875 -17.546875 C 8.394531 -17.328125 8.171875 -16.90625 8.046875 -16.28125 C 7.867188 -15.539062 7.78125 -13.894531 7.78125 -11.34375 C 7.78125 -9.03125 7.84375 -7.503906 7.96875 -6.765625 C 8.082031 -5.992188 8.300781 -5.472656 8.625 -5.203125 C 8.957031 -4.929688 9.460938 -4.796875 10.140625 -4.796875 Z M 10.140625 -4.796875 "/></g></g></g><g fill="#f8c703" fill-opacity="1"><g transform="translate(66.061286, 350.099646)"><g><path d="M 6.265625 0.359375 C 4.429688 0.359375 3.113281 -0.195312 2.3125 -1.3125 C 1.507812 -2.425781 1.109375 -4.171875 1.109375 -6.546875 C 1.109375 -8.285156 1.285156 -9.648438 1.640625 -10.640625 C 2.003906 -11.640625 2.609375 -12.367188 3.453125 -12.828125 C 4.296875 -13.285156 5.472656 -13.515625 6.984375 -13.515625 C 8.046875 -13.515625 9.46875 -13.457031 11.25 -13.34375 L 11.25 -14.375 C 11.25 -15.613281 11.148438 -16.492188 10.953125 -17.015625 C 10.765625 -17.535156 10.410156 -17.867188 9.890625 -18.015625 C 9.378906 -18.160156 8.484375 -18.234375 7.203125 -18.234375 C 5.960938 -18.234375 4.300781 -18.128906 2.21875 -17.921875 L 2.21875 -22.375 C 4.445312 -22.820312 6.6875 -23.046875 8.9375 -23.046875 C 11.164062 -23.046875 12.859375 -22.75 14.015625 -22.15625 C 15.171875 -21.5625 15.957031 -20.625 16.375 -19.34375 C 16.789062 -18.070312 17 -16.25 17 -13.875 L 17 0 L 11.515625 0 L 11.34375 -2.671875 L 11.03125 -2.671875 C 10.644531 -1.566406 10.019531 -0.785156 9.15625 -0.328125 C 8.300781 0.128906 7.335938 0.359375 6.265625 0.359375 Z M 8.765625 -4.625 C 9.265625 -4.625 9.671875 -4.679688 9.984375 -4.796875 C 10.296875 -4.921875 10.554688 -5.144531 10.765625 -5.46875 C 11.085938 -5.976562 11.25 -7.003906 11.25 -8.546875 L 11.25 -9.65625 L 8.578125 -9.65625 C 7.804688 -9.65625 7.296875 -9.488281 7.046875 -9.15625 C 6.796875 -8.832031 6.671875 -8.125 6.671875 -7.03125 C 6.671875 -6.082031 6.796875 -5.441406 7.046875 -5.109375 C 7.296875 -4.785156 7.867188 -4.625 8.765625 -4.625 Z M 8.765625 -4.625 "/></g></g></g><g fill="#f8c703" fill-opacity="1"><g transform="translate(87.236645, 350.099646)"><g><path d="M 2.046875 -22.6875 L 7.46875 -22.6875 L 7.65625 -18.953125 L 8 -18.953125 C 8.445312 -20.492188 9.085938 -21.5625 9.921875 -22.15625 C 10.753906 -22.75 11.863281 -23.046875 13.25 -23.046875 L 13.25 -17.03125 C 11.914062 -17.03125 10.851562 -16.835938 10.0625 -16.453125 C 9.28125 -16.066406 8.703125 -15.382812 8.328125 -14.40625 C 7.960938 -13.425781 7.78125 -12.066406 7.78125 -10.328125 L 7.78125 0 L 2.046875 0 Z M 2.046875 -22.6875 "/></g></g></g><g fill="#f8c703" fill-opacity="1"><g transform="translate(103.34066, 350.099646)"><g><path d="M 12.0625 -2.453125 L 11.75 -2.453125 C 11.363281 -1.472656 10.785156 -0.757812 10.015625 -0.3125 C 9.242188 0.132812 8.28125 0.359375 7.125 0.359375 C 5.632812 0.359375 4.488281 -0.00390625 3.6875 -0.734375 C 2.882812 -1.460938 2.320312 -2.65625 2 -4.3125 C 1.675781 -5.976562 1.515625 -8.320312 1.515625 -11.34375 C 1.515625 -14.457031 1.691406 -16.84375 2.046875 -18.5 C 2.398438 -20.164062 2.976562 -21.335938 3.78125 -22.015625 C 4.582031 -22.703125 5.722656 -23.046875 7.203125 -23.046875 C 9.671875 -23.046875 11.210938 -22.035156 11.828125 -20.015625 L 12.1875 -20.015625 L 12.359375 -22.6875 L 17.796875 -22.6875 L 17.796875 8.71875 L 12.0625 8.71875 Z M 9.703125 -4.796875 C 10.316406 -4.796875 10.785156 -4.90625 11.109375 -5.125 C 11.441406 -5.351562 11.679688 -5.78125 11.828125 -6.40625 C 11.984375 -7.113281 12.0625 -8.757812 12.0625 -11.34375 C 12.0625 -12.914062 12.046875 -14.054688 12.015625 -14.765625 C 11.984375 -15.484375 11.894531 -16.0625 11.75 -16.5 C 11.625 -17.03125 11.40625 -17.390625 11.09375 -17.578125 C 10.78125 -17.773438 10.316406 -17.875 9.703125 -17.875 C 8.898438 -17.875 8.34375 -17.753906 8.03125 -17.515625 C 7.71875 -17.285156 7.507812 -16.75 7.40625 -15.90625 C 7.300781 -15.0625 7.25 -13.539062 7.25 -11.34375 C 7.25 -9.144531 7.300781 -7.625 7.40625 -6.78125 C 7.507812 -5.9375 7.71875 -5.394531 8.03125 -5.15625 C 8.34375 -4.914062 8.898438 -4.796875 9.703125 -4.796875 Z M 9.703125 -4.796875 "/></g></g></g><g fill="#f8c703" fill-opacity="1"><g transform="translate(125.405735, 350.099646)"><g><path d="M 12.40625 -2.71875 L 12.0625 -2.71875 C 11.34375 -0.664062 9.679688 0.359375 7.078125 0.359375 C 5.617188 0.359375 4.523438 0.078125 3.796875 -0.484375 C 3.078125 -1.046875 2.585938 -1.898438 2.328125 -3.046875 C 2.078125 -4.191406 1.953125 -5.769531 1.953125 -7.78125 L 1.953125 -22.6875 L 7.703125 -22.6875 L 7.703125 -10.40625 C 7.703125 -8.507812 7.742188 -7.203125 7.828125 -6.484375 C 7.921875 -5.773438 8.109375 -5.320312 8.390625 -5.125 C 8.671875 -4.9375 9.179688 -4.84375 9.921875 -4.84375 C 10.660156 -4.84375 11.1875 -4.988281 11.5 -5.28125 C 11.8125 -5.582031 12.007812 -6.140625 12.09375 -6.953125 C 12.1875 -7.773438 12.234375 -9.148438 12.234375 -11.078125 L 12.234375 -22.6875 L 17.96875 -22.6875 L 17.96875 0 L 12.59375 0 Z M 12.40625 -2.71875 "/></g></g></g><g fill="#f8c703" fill-opacity="1"><g transform="translate(147.648746, 350.099646)"><g><path d="M 17.34375 -9.5625 L 7.25 -9.5625 C 7.25 -7.875 7.320312 -6.703125 7.46875 -6.046875 C 7.625 -5.398438 7.96875 -4.972656 8.5 -4.765625 C 9.03125 -4.554688 9.992188 -4.453125 11.390625 -4.453125 C 12.515625 -4.453125 14.320312 -4.539062 16.8125 -4.71875 L 16.8125 -0.3125 C 16.007812 -0.132812 14.96875 0.0195312 13.6875 0.15625 C 12.414062 0.289062 11.203125 0.359375 10.046875 0.359375 C 7.410156 0.359375 5.488281 -0.03125 4.28125 -0.8125 C 3.082031 -1.601562 2.320312 -2.769531 2 -4.3125 C 1.675781 -5.851562 1.515625 -8.179688 1.515625 -11.296875 C 1.515625 -14.347656 1.675781 -16.660156 2 -18.234375 C 2.320312 -19.804688 3.0625 -21 4.21875 -21.8125 C 5.375 -22.632812 7.203125 -23.046875 9.703125 -23.046875 C 12.128906 -23.046875 13.882812 -22.664062 14.96875 -21.90625 C 16.050781 -21.15625 16.71875 -20.019531 16.96875 -18.5 C 17.21875 -16.988281 17.34375 -14.585938 17.34375 -11.296875 Z M 9.65625 -18.28125 C 8.914062 -18.28125 8.390625 -18.175781 8.078125 -17.96875 C 7.765625 -17.757812 7.546875 -17.328125 7.421875 -16.671875 C 7.304688 -16.023438 7.25 -14.945312 7.25 -13.4375 L 11.96875 -13.4375 C 11.96875 -14.945312 11.90625 -16.035156 11.78125 -16.703125 C 11.664062 -17.367188 11.457031 -17.796875 11.15625 -17.984375 C 10.863281 -18.179688 10.363281 -18.28125 9.65625 -18.28125 Z M 9.65625 -18.28125 "/></g></g></g><g fill="#f8c703" fill-opacity="1"><g transform="translate(168.779627, 350.099646)"><g/></g></g><g fill="#f8c703" fill-opacity="1"><g transform="translate(178.967073, 350.099646)"><g><path d="M 17.34375 -9.5625 L 7.25 -9.5625 C 7.25 -7.875 7.320312 -6.703125 7.46875 -6.046875 C 7.625 -5.398438 7.96875 -4.972656 8.5 -4.765625 C 9.03125 -4.554688 9.992188 -4.453125 11.390625 -4.453125 C 12.515625 -4.453125 14.320312 -4.539062 16.8125 -4.71875 L 16.8125 -0.3125 C 16.007812 -0.132812 14.96875 0.0195312 13.6875 0.15625 C 12.414062 0.289062 11.203125 0.359375 10.046875 0.359375 C 7.410156 0.359375 5.488281 -0.03125 4.28125 -0.8125 C 3.082031 -1.601562 2.320312 -2.769531 2 -4.3125 C 1.675781 -5.851562 1.515625 -8.179688 1.515625 -11.296875 C 1.515625 -14.347656 1.675781 -16.660156 2 -18.234375 C 2.320312 -19.804688 3.0625 -21 4.21875 -21.8125 C 5.375 -22.632812 7.203125 -23.046875 9.703125 -23.046875 C 12.128906 -23.046875 13.882812 -22.664062 14.96875 -21.90625 C 16.050781 -21.15625 16.71875 -20.019531 16.96875 -18.5 C 17.21875 -16.988281 17.34375 -14.585938 17.34375 -11.296875 Z M 9.65625 -18.28125 C 8.914062 -18.28125 8.390625 -18.175781 8.078125 -17.96875 C 7.765625 -17.757812 7.546875 -17.328125 7.421875 -16.671875 C 7.304688 -16.023438 7.25 -14.945312 7.25 -13.4375 L 11.96875 -13.4375 C 11.96875 -14.945312 11.90625 -16.035156 11.78125 -16.703125 C 11.664062 -17.367188 11.457031 -17.796875 11.15625 -17.984375 C 10.863281 -18.179688 10.363281 -18.28125 9.65625 -18.28125 Z M 9.65625 -18.28125 "/></g></g></g><g fill="#f8c703" fill-opacity="1"><g transform="translate(200.097954, 350.099646)"><g><path d="M 8.3125 0.359375 C 7.28125 0.359375 6.132812 0.289062 4.875 0.15625 C 3.613281 0.0195312 2.535156 -0.148438 1.640625 -0.359375 L 1.640625 -4.765625 C 3.597656 -4.554688 5.289062 -4.453125 6.71875 -4.453125 C 7.601562 -4.453125 8.257812 -4.503906 8.6875 -4.609375 C 9.125 -4.710938 9.421875 -4.910156 9.578125 -5.203125 C 9.742188 -5.503906 9.828125 -5.960938 9.828125 -6.578125 C 9.828125 -7.265625 9.789062 -7.75 9.71875 -8.03125 C 9.644531 -8.3125 9.492188 -8.503906 9.265625 -8.609375 C 9.046875 -8.710938 8.65625 -8.804688 8.09375 -8.890625 L 4.359375 -9.515625 C 3.171875 -9.691406 2.332031 -10.273438 1.84375 -11.265625 C 1.351562 -12.265625 1.109375 -13.890625 1.109375 -16.140625 C 1.109375 -18.691406 1.726562 -20.476562 2.96875 -21.5 C 4.21875 -22.53125 6.078125 -23.046875 8.546875 -23.046875 C 9.523438 -23.046875 10.5625 -22.976562 11.65625 -22.84375 C 12.75 -22.707031 13.640625 -22.535156 14.328125 -22.328125 L 14.328125 -17.875 C 12.429688 -18.113281 10.859375 -18.234375 9.609375 -18.234375 C 8.484375 -18.234375 7.734375 -18.109375 7.359375 -17.859375 C 6.992188 -17.609375 6.8125 -17.066406 6.8125 -16.234375 C 6.8125 -15.585938 6.835938 -15.128906 6.890625 -14.859375 C 6.953125 -14.585938 7.078125 -14.398438 7.265625 -14.296875 C 7.460938 -14.191406 7.800781 -14.113281 8.28125 -14.0625 L 11.515625 -13.5625 C 12.347656 -13.414062 13.03125 -13.171875 13.5625 -12.828125 C 14.101562 -12.492188 14.539062 -11.863281 14.875 -10.9375 C 15.21875 -10.019531 15.390625 -8.703125 15.390625 -6.984375 C 15.390625 -4.191406 14.8125 -2.269531 13.65625 -1.21875 C 12.5 -0.164062 10.71875 0.359375 8.3125 0.359375 Z M 8.3125 0.359375 "/></g></g></g><g fill="#f8c703" fill-opacity="1"><g transform="translate(218.826614, 350.099646)"><g><path d="M 3.46875 0 L 3.46875 -17.875 L 0.671875 -17.875 L 0.671875 -22.6875 L 3.46875 -22.6875 L 3.46875 -29.265625 L 9.203125 -29.265625 L 9.203125 -22.6875 L 12.8125 -22.6875 L 12.8125 -17.875 L 9.203125 -17.875 L 9.203125 0 Z M 3.46875 0 "/></g></g></g><g fill="#f8c703" fill-opacity="1"><g transform="translate(234.485773, 350.099646)"><g><path d="M 6.265625 0.359375 C 4.429688 0.359375 3.113281 -0.195312 2.3125 -1.3125 C 1.507812 -2.425781 1.109375 -4.171875 1.109375 -6.546875 C 1.109375 -8.285156 1.285156 -9.648438 1.640625 -10.640625 C 2.003906 -11.640625 2.609375 -12.367188 3.453125 -12.828125 C 4.296875 -13.285156 5.472656 -13.515625 6.984375 -13.515625 C 8.046875 -13.515625 9.46875 -13.457031 11.25 -13.34375 L 11.25 -14.375 C 11.25 -15.613281 11.148438 -16.492188 10.953125 -17.015625 C 10.765625 -17.535156 10.410156 -17.867188 9.890625 -18.015625 C 9.378906 -18.160156 8.484375 -18.234375 7.203125 -18.234375 C 5.960938 -18.234375 4.300781 -18.128906 2.21875 -17.921875 L 2.21875 -22.375 C 4.445312 -22.820312 6.6875 -23.046875 8.9375 -23.046875 C 11.164062 -23.046875 12.859375 -22.75 14.015625 -22.15625 C 15.171875 -21.5625 15.957031 -20.625 16.375 -19.34375 C 16.789062 -18.070312 17 -16.25 17 -13.875 L 17 0 L 11.515625 0 L 11.34375 -2.671875 L 11.03125 -2.671875 C 10.644531 -1.566406 10.019531 -0.785156 9.15625 -0.328125 C 8.300781 0.128906 7.335938 0.359375 6.265625 0.359375 Z M 8.765625 -4.625 C 9.265625 -4.625 9.671875 -4.679688 9.984375 -4.796875 C 10.296875 -4.921875 10.554688 -5.144531 10.765625 -5.46875 C 11.085938 -5.976562 11.25 -7.003906 11.25 -8.546875 L 11.25 -9.65625 L 8.578125 -9.65625 C 7.804688 -9.65625 7.296875 -9.488281 7.046875 -9.15625 C 6.796875 -8.832031 6.671875 -8.125 6.671875 -7.03125 C 6.671875 -6.082031 6.796875 -5.441406 7.046875 -5.109375 C 7.296875 -4.785156 7.867188 -4.625 8.765625 -4.625 Z M 8.765625 -4.625 "/></g></g></g><g fill="#f8c703" fill-opacity="1"><g transform="translate(255.661131, 350.099646)"><g><path d="M 7.203125 0.359375 C 5.722656 0.359375 4.582031 0.0234375 3.78125 -0.640625 C 2.976562 -1.304688 2.398438 -2.46875 2.046875 -4.125 C 1.691406 -5.789062 1.515625 -8.179688 1.515625 -11.296875 C 1.515625 -14.347656 1.675781 -16.703125 2 -18.359375 C 2.320312 -20.023438 2.882812 -21.222656 3.6875 -21.953125 C 4.488281 -22.679688 5.632812 -23.046875 7.125 -23.046875 C 8.28125 -23.046875 9.242188 -22.820312 10.015625 -22.375 C 10.785156 -21.925781 11.363281 -21.226562 11.75 -20.28125 L 12.0625 -20.28125 L 12.0625 -33.046875 L 17.796875 -33.046875 L 17.796875 0 L 12.359375 0 L 12.1875 -2.671875 L 11.828125 -2.671875 C 11.210938 -0.648438 9.671875 0.359375 7.203125 0.359375 Z M 9.703125 -4.796875 C 10.316406 -4.796875 10.78125 -4.898438 11.09375 -5.109375 C 11.40625 -5.316406 11.632812 -5.71875 11.78125 -6.3125 C 11.96875 -7.175781 12.0625 -8.851562 12.0625 -11.34375 C 12.0625 -13.75 12 -15.273438 11.875 -15.921875 C 11.757812 -16.691406 11.535156 -17.207031 11.203125 -17.46875 C 10.878906 -17.738281 10.378906 -17.875 9.703125 -17.875 C 8.898438 -17.875 8.34375 -17.753906 8.03125 -17.515625 C 7.71875 -17.285156 7.507812 -16.75 7.40625 -15.90625 C 7.300781 -15.0625 7.25 -13.539062 7.25 -11.34375 C 7.25 -9.144531 7.300781 -7.625 7.40625 -6.78125 C 7.507812 -5.9375 7.71875 -5.394531 8.03125 -5.15625 C 8.34375 -4.914062 8.898438 -4.796875 9.703125 -4.796875 Z M 9.703125 -4.796875 "/></g></g></g><g fill="#f8c703" fill-opacity="1"><g transform="translate(277.726207, 350.099646)"><g><path d="M 12.40625 -2.71875 L 12.0625 -2.71875 C 11.34375 -0.664062 9.679688 0.359375 7.078125 0.359375 C 5.617188 0.359375 4.523438 0.078125 3.796875 -0.484375 C 3.078125 -1.046875 2.585938 -1.898438 2.328125 -3.046875 C 2.078125 -4.191406 1.953125 -5.769531 1.953125 -7.78125 L 1.953125 -22.6875 L 7.703125 -22.6875 L 7.703125 -10.40625 C 7.703125 -8.507812 7.742188 -7.203125 7.828125 -6.484375 C 7.921875 -5.773438 8.109375 -5.320312 8.390625 -5.125 C 8.671875 -4.9375 9.179688 -4.84375 9.921875 -4.84375 C 10.660156 -4.84375 11.1875 -4.988281 11.5 -5.28125 C 11.8125 -5.582031 12.007812 -6.140625 12.09375 -6.953125 C 12.1875 -7.773438 12.234375 -9.148438 12.234375 -11.078125 L 12.234375 -22.6875 L 17.96875 -22.6875 L 17.96875 0 L 12.59375 0 Z M 12.40625 -2.71875 "/></g></g></g><g fill="#f8c703" fill-opacity="1"><g transform="translate(299.969217, 350.099646)"><g><path d="M 6.265625 0.359375 C 4.429688 0.359375 3.113281 -0.195312 2.3125 -1.3125 C 1.507812 -2.425781 1.109375 -4.171875 1.109375 -6.546875 C 1.109375 -8.285156 1.285156 -9.648438 1.640625 -10.640625 C 2.003906 -11.640625 2.609375 -12.367188 3.453125 -12.828125 C 4.296875 -13.285156 5.472656 -13.515625 6.984375 -13.515625 C 8.046875 -13.515625 9.46875 -13.457031 11.25 -13.34375 L 11.25 -14.375 C 11.25 -15.613281 11.148438 -16.492188 10.953125 -17.015625 C 10.765625 -17.535156 10.410156 -17.867188 9.890625 -18.015625 C 9.378906 -18.160156 8.484375 -18.234375 7.203125 -18.234375 C 5.960938 -18.234375 4.300781 -18.128906 2.21875 -17.921875 L 2.21875 -22.375 C 4.445312 -22.820312 6.6875 -23.046875 8.9375 -23.046875 C 11.164062 -23.046875 12.859375 -22.75 14.015625 -22.15625 C 15.171875 -21.5625 15.957031 -20.625 16.375 -19.34375 C 16.789062 -18.070312 17 -16.25 17 -13.875 L 17 0 L 11.515625 0 L 11.34375 -2.671875 L 11.03125 -2.671875 C 10.644531 -1.566406 10.019531 -0.785156 9.15625 -0.328125 C 8.300781 0.128906 7.335938 0.359375 6.265625 0.359375 Z M 8.765625 -4.625 C 9.265625 -4.625 9.671875 -4.679688 9.984375 -4.796875 C 10.296875 -4.921875 10.554688 -5.144531 10.765625 -5.46875 C 11.085938 -5.976562 11.25 -7.003906 11.25 -8.546875 L 11.25 -9.65625 L 8.578125 -9.65625 C 7.804688 -9.65625 7.296875 -9.488281 7.046875 -9.15625 C 6.796875 -8.832031 6.671875 -8.125 6.671875 -7.03125 C 6.671875 -6.082031 6.796875 -5.441406 7.046875 -5.109375 C 7.296875 -4.785156 7.867188 -4.625 8.765625 -4.625 Z M 8.765625 -4.625 "/></g></g></g><g fill="#f8c703" fill-opacity="1"><g transform="translate(321.144575, 350.099646)"><g><path d="M 2.046875 0 L 2.046875 -33.046875 L 7.78125 -33.046875 L 7.78125 0 Z M 2.046875 0 "/></g></g></g></svg>