<svg width="75" height="75" viewBox="0 0 75 75" fill="none" xmlns="http://www.w3.org/2000/svg">
<path fill-rule="evenodd" clip-rule="evenodd" d="M49.6289 24.0227C49.6969 24.0094 49.7672 23.9961 49.8367 23.9828C49.7664 23.9961 49.6969 24.0094 49.6289 24.0227Z" fill="white"/>
<path fill-rule="evenodd" clip-rule="evenodd" d="M49.3274 24.0844C49.3586 24.0773 49.3915 24.0703 49.4235 24.0641C49.3915 24.0711 49.3594 24.0773 49.3274 24.0844Z" fill="white"/>
<path fill-rule="evenodd" clip-rule="evenodd" d="M49.1351 24.1281C49.1656 24.1203 49.1969 24.1133 49.2289 24.1055C49.1976 24.1125 49.1664 24.1203 49.1351 24.1281Z" fill="white"/>
<path fill-rule="evenodd" clip-rule="evenodd" d="M30.3633 21.468C29.9391 27.1719 32.7477 31.1977 36.5079 32.3094C37.4633 31.1195 38.4422 29.8 39.4454 28.3547C35.6696 27.3648 32.6415 25.0695 30.3633 21.468Z" fill="#F8C703"/>
<mask id="mask0_54_2" style="mask-type:luminance" maskUnits="userSpaceOnUse" x="24" y="18" width="27" height="23">
<path d="M24.7094 18.8664H50.3594V40.1664H24.7094V18.8664Z" fill="white"/>
</mask>
<g mask="url(#mask0_54_2)">
<path fill-rule="evenodd" clip-rule="evenodd" d="M36.1343 31.9162C32.3734 30.8037 29.5656 26.7779 29.989 21.0748C32.2671 24.6763 35.2952 26.9709 39.0718 27.9607C38.0687 29.4076 37.0882 30.7256 36.1343 31.9162ZM39.2288 27.7287C41.228 24.8115 43.1351 23.0787 44.9491 22.5334C47.0546 21.899 48.0859 23.4638 49.9398 23.7373C48.1155 23.8107 47.0335 22.2052 45.0421 22.942C43.246 23.606 41.6601 25.4263 39.882 27.9185C41.5038 28.3482 43.2726 28.5334 45.1898 28.4732C43.232 28.6013 41.414 28.4841 39.7382 28.1209C39.3234 28.7076 38.896 29.3302 38.4538 29.9826C37.9179 30.7263 37.3843 31.4295 36.8531 32.092C39.5093 32.5998 42.5452 31.699 45.2257 28.9888C42.8468 32.1154 39.4773 33.181 36.4437 32.5959C32.3765 37.5263 28.4702 40.0654 24.7257 40.2146C27.9343 40.0365 31.5999 37.4388 35.721 32.424C31.221 31.1412 27.7351 26.1459 29.8781 18.867C31.9945 23.4826 35.1109 26.4373 39.228 27.7302L39.2288 27.7287ZM29.2945 38.8888C32.6593 38.206 36.1007 36.5279 39.6179 33.8568C36.6468 36.7865 33.2062 38.4646 29.2945 38.8888ZM45.8515 27.331C44.6312 31.9013 41.3437 34.006 35.989 33.6435C41.8163 34.667 45.2882 32.5709 46.4062 27.3576C46.8382 25.3381 48.2882 24.2091 50.2718 23.7545C47.7062 24.1701 46.503 24.8881 45.8515 27.3302V27.331Z" fill="white"/>
</g>
<path d="M27.2776 46.1228V45.1603H28.8182V48.3134C28.626 48.3634 28.394 48.404 28.1213 48.4353C27.8502 48.4681 27.5979 48.4853 27.3651 48.4853C26.8502 48.4853 26.4658 48.4087 26.2119 48.254C25.9596 48.0978 25.7854 47.8212 25.6901 47.4228C25.5963 47.0228 25.5494 46.4212 25.5494 45.6165C25.5494 44.8165 25.5994 44.2181 25.6994 43.8196C25.7994 43.4196 25.9823 43.1415 26.2494 42.9853C26.5158 42.8275 26.9151 42.7478 27.4463 42.7478C27.6651 42.7478 27.901 42.765 28.1557 42.7978C28.4119 42.829 28.6291 42.8665 28.8088 42.9103V43.8321C28.3416 43.7657 28.0026 43.7321 27.7901 43.7321C27.4213 43.7321 27.1666 43.7626 27.0276 43.8228C26.8901 43.8837 26.7948 44.0376 26.7432 44.2853C26.6908 44.5314 26.6651 44.9751 26.6651 45.6165C26.6651 46.215 26.6807 46.64 26.7119 46.8915C26.7448 47.1439 26.8096 47.3134 26.9057 47.4009C27.001 47.4884 27.1627 47.5321 27.3901 47.5321C27.4401 47.5321 27.5698 47.5243 27.7807 47.5071V46.1228H27.2776Z" fill="white"/>
<path d="M34.0713 42.8134V45.9353C34.0713 46.6728 34.0401 47.2095 33.9776 47.5446C33.9151 47.8782 33.7682 48.1189 33.537 48.2665C33.3073 48.4126 32.9292 48.4853 32.4026 48.4853C31.8752 48.4853 31.4963 48.4126 31.2651 48.2665C31.0338 48.1189 30.887 47.8782 30.8245 47.5446C30.762 47.2095 30.7307 46.6728 30.7307 45.9353V42.8134H31.8463V46.3103C31.8463 46.7064 31.8557 46.979 31.8745 47.129C31.8948 47.2775 31.9417 47.3759 32.0151 47.4259C32.0877 47.4743 32.2167 47.4978 32.4026 47.4978C32.5854 47.4978 32.7127 47.4743 32.7838 47.4259C32.8542 47.3759 32.8995 47.2782 32.9182 47.1321C32.9385 46.9868 32.9495 46.7126 32.9495 46.3103V42.8134H34.0713ZM31.2713 42.3071V42.2415L31.8807 41.2384H32.9338L33.5526 42.2415V42.3071H32.8276L32.4026 41.729L31.987 42.3071H31.2713Z" fill="white"/>
<path d="M36.9324 48.4196V46.479L35.6042 42.8134H36.7542L37.4855 45.2321H37.5605L38.2699 42.8134H39.3792L38.048 46.479V48.4196H36.9324Z" fill="white"/>
<path d="M43.2149 48.4196L42.6711 46.4634H42.068V48.4196H40.943V42.8134H42.8336C43.2352 42.8134 43.5375 42.8814 43.7399 43.0165C43.9438 43.1524 44.0813 43.3478 44.1524 43.604C44.2227 43.8587 44.2586 44.2001 44.2586 44.629C44.2586 45.0376 44.2219 45.3751 44.1492 45.6415C44.0758 45.9064 43.9281 46.1071 43.7055 46.2446L44.3805 48.4196H43.2149ZM42.5649 45.4946C42.7438 45.4946 42.8711 45.4751 42.9461 45.4353C43.0227 45.3939 43.0727 45.3181 43.0961 45.2071C43.1211 45.0946 43.1336 44.9056 43.1336 44.6384C43.1336 44.3782 43.1211 44.1939 43.0961 44.0853C43.0727 43.9751 43.0227 43.9001 42.9461 43.8603C42.8711 43.8189 42.7438 43.7978 42.5649 43.7978H42.068V45.4946H42.5649Z" fill="white"/>
<path d="M48.5625 48.4196L48.3406 47.2696H47.0875L46.8656 48.4196H45.75L46.9063 42.8134H48.5438L49.7031 48.4196H48.5625ZM47.7375 43.8728H47.6906L47.25 46.3009H48.1688L47.7375 43.8728ZM47.1938 42.3071V42.2665L47.625 41.1165H48.6688V41.1571L48.025 42.3071H47.1938Z" fill="white"/>
<path d="M22.2754 51.6378H23.3598C23.5926 51.6378 23.7691 51.68 23.8879 51.7628C24.0066 51.8441 24.0863 51.9644 24.1285 52.1222C24.1699 52.2785 24.191 52.4878 24.191 52.7503C24.191 53.0003 24.1723 53.205 24.1348 53.3628C24.0973 53.5214 24.0168 53.6464 23.8941 53.7378C23.773 53.8277 23.5941 53.8722 23.3566 53.8722H22.9348V54.9222H22.2754V51.6378ZM23.1941 53.2941C23.302 53.2941 23.3785 53.2816 23.4223 53.2566C23.4676 53.2316 23.4973 53.1839 23.5098 53.1128C23.5238 53.0402 23.5316 52.9191 23.5316 52.7503C23.5316 52.5816 23.5238 52.4628 23.5098 52.3941C23.4973 52.3238 23.4691 52.2769 23.4254 52.2535C23.3816 52.2285 23.3051 52.216 23.1973 52.216H22.9348V53.2941H23.1941Z" fill="#F8C703"/>
<path d="M25.2071 54.9597C25.011 54.9597 24.8696 54.9003 24.7821 54.7816C24.6961 54.6628 24.6539 54.4753 24.6539 54.2191C24.6539 54.0316 24.6727 53.8847 24.7102 53.7785C24.7492 53.6722 24.8141 53.5941 24.9039 53.5441C24.9953 53.4941 25.1227 53.4691 25.2852 53.4691C25.3992 53.4691 25.5524 53.4769 25.7446 53.491V53.3785C25.7446 53.2456 25.7336 53.1519 25.7133 53.0972C25.6922 53.041 25.6539 53.0058 25.5977 52.991C25.5414 52.9745 25.4453 52.966 25.3102 52.966C25.1742 52.966 24.9953 52.9769 24.7727 52.9972V52.5191C25.0117 52.4714 25.2524 52.4472 25.4946 52.4472C25.7336 52.4472 25.9149 52.48 26.0383 52.5441C26.1633 52.6089 26.2477 52.7097 26.2914 52.8472C26.3367 52.9831 26.3602 53.1777 26.3602 53.4316V54.9222H25.7727L25.7539 54.6347H25.7196C25.6774 54.7535 25.6102 54.8378 25.5164 54.8878C25.4242 54.9355 25.3211 54.9597 25.2071 54.9597ZM25.4758 54.4253C25.5297 54.4253 25.5735 54.4191 25.6071 54.4066C25.6399 54.3941 25.668 54.3706 25.6914 54.3347C25.7266 54.2808 25.7446 54.1714 25.7446 54.0066V53.8847H25.4571C25.3735 53.8847 25.318 53.9027 25.2914 53.9378C25.2641 53.9738 25.2508 54.0503 25.2508 54.1691C25.2508 54.2691 25.2641 54.337 25.2914 54.3722C25.318 54.4081 25.3797 54.4253 25.4758 54.4253Z" fill="#F8C703"/>
<path d="M27.0266 52.4878H27.611L27.6297 52.8878H27.6672C27.7149 52.7238 27.7836 52.6089 27.8735 52.5441C27.9625 52.48 28.0813 52.4472 28.2297 52.4472V53.0941C28.0875 53.0941 27.9743 53.1152 27.8891 53.1566C27.8055 53.1988 27.743 53.2714 27.7016 53.3753C27.6618 53.48 27.6422 53.6269 27.6422 53.816V54.9222H27.0266V52.4878Z" fill="#F8C703"/>
<path d="M29.83 54.6597H29.7956C29.7558 54.7644 29.694 54.8402 29.6112 54.8878C29.5276 54.9355 29.4237 54.9597 29.2987 54.9597C29.1401 54.9597 29.0183 54.9214 28.9331 54.8441C28.8472 54.7652 28.787 54.637 28.7519 54.4597C28.7159 54.2808 28.6987 54.0285 28.6987 53.7035C28.6987 53.3706 28.7175 53.1152 28.755 52.9378C28.794 52.7589 28.8565 52.6331 28.9425 52.5597C29.0276 52.4847 29.1503 52.4472 29.3112 52.4472C29.5737 52.4472 29.7378 52.5558 29.805 52.7722H29.8456L29.8644 52.4878H30.4456V55.8566H29.83V54.6597ZM29.5769 54.4066C29.6433 54.4066 29.694 54.3956 29.73 54.3722C29.7651 54.3472 29.7901 54.3019 29.805 54.2347C29.8214 54.1581 29.83 53.9808 29.83 53.7035C29.83 53.5347 29.8276 53.4128 29.8237 53.3378C29.8214 53.2613 29.812 53.1988 29.7956 53.1503C29.7831 53.0941 29.7597 53.0558 29.7269 53.0347C29.6933 53.0144 29.6433 53.0035 29.5769 53.0035C29.4909 53.0035 29.4315 53.016 29.3987 53.041C29.3651 53.066 29.3425 53.1245 29.33 53.216C29.319 53.3058 29.3144 53.4683 29.3144 53.7035C29.3144 53.9394 29.319 54.1027 29.33 54.1941C29.3425 54.2863 29.3651 54.3441 29.3987 54.3691C29.4315 54.3941 29.4909 54.4066 29.5769 54.4066Z" fill="#F8C703"/>
<path d="M32.2356 54.6316H32.1981C32.1208 54.8503 31.9427 54.9597 31.6638 54.9597C31.5075 54.9597 31.3896 54.9292 31.3106 54.8691C31.2333 54.8089 31.181 54.7183 31.1544 54.5972C31.1271 54.4746 31.1138 54.305 31.1138 54.0878V52.4878H31.7294V53.8035C31.7294 54.0082 31.7341 54.1488 31.745 54.2253C31.7552 54.3027 31.7747 54.3519 31.8044 54.3722C31.8356 54.391 31.8903 54.4003 31.97 54.4003C32.0489 54.4003 32.1052 54.3847 32.1388 54.3535C32.1716 54.3222 32.1927 54.2628 32.2013 54.1753C32.2114 54.0878 32.2169 53.941 32.2169 53.7347V52.4878H32.8325V54.9222H32.2544L32.2356 54.6316Z" fill="#F8C703"/>
<path d="M35.1541 53.8941H34.0697C34.0697 54.0777 34.0768 54.205 34.0916 54.2753C34.108 54.3441 34.1447 54.3902 34.201 54.4128C34.2588 54.4339 34.3635 54.4441 34.5135 54.4441C34.6338 54.4441 34.8291 54.4347 35.0979 54.416V54.8878C35.0104 54.9066 34.8979 54.923 34.7604 54.9378C34.6244 54.9519 34.4947 54.9597 34.3697 54.9597C34.0861 54.9597 33.8799 54.9183 33.751 54.8347C33.6236 54.7495 33.5424 54.6245 33.5072 54.4597C33.4713 54.2933 33.4541 54.0433 33.4541 53.7097C33.4541 53.3831 33.4713 53.1347 33.5072 52.966C33.5424 52.7972 33.6213 52.6691 33.7447 52.5816C33.8697 52.4925 34.065 52.4472 34.3322 52.4472C34.5924 52.4472 34.7807 52.4878 34.8979 52.5691C35.0143 52.6503 35.0861 52.7722 35.1135 52.9347C35.14 53.0972 35.1541 53.3558 35.1541 53.7097V53.8941ZM34.3291 52.9597C34.2479 52.9597 34.19 52.9714 34.1572 52.9941C34.1236 53.0152 34.101 53.0613 34.0885 53.1316C34.076 53.2027 34.0697 53.3191 34.0697 53.4816H34.576C34.576 53.3191 34.5697 53.2027 34.5572 53.1316C34.5447 53.0589 34.5213 53.012 34.4885 52.991C34.4572 52.9706 34.4041 52.9597 34.3291 52.9597Z" fill="#F8C703"/>
<path d="M38.5156 53.8941H37.4312C37.4312 54.0777 37.4382 54.205 37.4531 54.2753C37.4695 54.3441 37.5062 54.3902 37.5624 54.4128C37.6202 54.4339 37.7249 54.4441 37.8749 54.4441C37.9952 54.4441 38.1906 54.4347 38.4593 54.416V54.8878C38.3718 54.9066 38.2593 54.923 38.1218 54.9378C37.9859 54.9519 37.8562 54.9597 37.7312 54.9597C37.4476 54.9597 37.2413 54.9183 37.1124 54.8347C36.9851 54.7495 36.9038 54.6245 36.8687 54.4597C36.8327 54.2933 36.8156 54.0433 36.8156 53.7097C36.8156 53.3831 36.8327 53.1347 36.8687 52.966C36.9038 52.7972 36.9827 52.6691 37.1062 52.5816C37.2312 52.4925 37.4265 52.4472 37.6937 52.4472C37.9538 52.4472 38.1421 52.4878 38.2593 52.5691C38.3757 52.6503 38.4476 52.7722 38.4749 52.9347C38.5015 53.0972 38.5156 53.3558 38.5156 53.7097V53.8941ZM37.6906 52.9597C37.6093 52.9597 37.5515 52.9714 37.5187 52.9941C37.4851 53.0152 37.4624 53.0613 37.4499 53.1316C37.4374 53.2027 37.4312 53.3191 37.4312 53.4816H37.9374C37.9374 53.3191 37.9312 53.2027 37.9187 53.1316C37.9062 53.0589 37.8827 53.012 37.8499 52.991C37.8187 52.9706 37.7656 52.9597 37.6906 52.9597Z" fill="#F8C703"/>
<path d="M39.8147 54.9597C39.7022 54.9597 39.578 54.9519 39.4428 54.9378C39.3069 54.923 39.1928 54.9058 39.099 54.8847V54.4128C39.3069 54.4339 39.4881 54.4441 39.6428 54.4441C39.7381 54.4441 39.8092 54.4394 39.8553 54.4285C39.9006 54.4183 39.9319 54.3972 39.949 54.366C39.9678 54.3331 39.9772 54.2831 39.9772 54.216C39.9772 54.1433 39.9725 54.0925 39.9647 54.0628C39.9561 54.0316 39.9397 54.0113 39.9147 54.0003C39.8912 53.9878 39.8498 53.9769 39.7897 53.966L39.3897 53.9003C39.2623 53.8816 39.1717 53.8191 39.1178 53.7128C39.0655 53.605 39.0397 53.43 39.0397 53.1878C39.0397 52.9152 39.1061 52.7238 39.2397 52.6128C39.3748 52.5027 39.574 52.4472 39.8365 52.4472C39.9428 52.4472 40.0537 52.455 40.1709 52.4691C40.2897 52.4839 40.385 52.5027 40.4584 52.5253V53.0035C40.2537 52.9785 40.085 52.966 39.9522 52.966C39.8311 52.966 39.7506 52.98 39.7115 53.0066C39.6717 53.0316 39.6522 53.0894 39.6522 53.1785C39.6522 53.2495 39.6553 53.2995 39.6615 53.3285C39.6678 53.3558 39.6811 53.3753 39.7022 53.3878C39.7225 53.3988 39.7584 53.4066 39.8084 53.4128L40.1584 53.466C40.2475 53.4831 40.3209 53.5097 40.3772 53.5472C40.435 53.5831 40.4819 53.6495 40.5178 53.7472C40.5553 53.8456 40.574 53.987 40.574 54.1722C40.574 54.4722 40.5115 54.6785 40.3865 54.791C40.2631 54.9035 40.0725 54.9597 39.8147 54.9597Z" fill="#F8C703"/>
<path d="M41.3029 54.9222V53.0035H41.0029V52.4878H41.3029V51.7816H41.9186V52.4878H42.3061V53.0035H41.9186V54.9222H41.3029Z" fill="#F8C703"/>
<path d="M43.2836 54.9597C43.0875 54.9597 42.9461 54.9003 42.8586 54.7816C42.7727 54.6628 42.7305 54.4753 42.7305 54.2191C42.7305 54.0316 42.7492 53.8847 42.7867 53.7785C42.8258 53.6722 42.8906 53.5941 42.9805 53.5441C43.0719 53.4941 43.1992 53.4691 43.3617 53.4691C43.4758 53.4691 43.6289 53.4769 43.8211 53.491V53.3785C43.8211 53.2456 43.8102 53.1519 43.7898 53.0972C43.7687 53.041 43.7305 53.0058 43.6742 52.991C43.618 52.9745 43.5219 52.966 43.3867 52.966C43.2508 52.966 43.0719 52.9769 42.8492 52.9972V52.5191C43.0883 52.4714 43.3289 52.4472 43.5711 52.4472C43.8102 52.4472 43.9914 52.48 44.1148 52.5441C44.2398 52.6089 44.3242 52.7097 44.368 52.8472C44.4133 52.9831 44.4367 53.1777 44.4367 53.4316V54.9222H43.8492L43.8305 54.6347H43.7961C43.7539 54.7535 43.6867 54.8378 43.593 54.8878C43.5008 54.9355 43.3977 54.9597 43.2836 54.9597ZM43.5523 54.4253C43.6062 54.4253 43.65 54.4191 43.6836 54.4066C43.7164 54.3941 43.7445 54.3706 43.768 54.3347C43.8031 54.2808 43.8211 54.1714 43.8211 54.0066V53.8847H43.5336C43.45 53.8847 43.3945 53.9027 43.368 53.9378C43.3406 53.9738 43.3273 54.0503 43.3273 54.1691C43.3273 54.2691 43.3406 54.337 43.368 54.3722C43.3945 54.4081 43.4562 54.4253 43.5523 54.4253Z" fill="#F8C703"/>
<path d="M45.6594 54.9597C45.4984 54.9597 45.3758 54.9238 45.2906 54.8535C45.2047 54.7808 45.1422 54.6558 45.1031 54.4785C45.0656 54.2996 45.0469 54.0433 45.0469 53.7097C45.0469 53.3831 45.0641 53.13 45.1 52.9503C45.1352 52.7714 45.1953 52.6433 45.2813 52.566C45.3664 52.4871 45.4883 52.4472 45.6469 52.4472C45.7719 52.4472 45.8758 52.4714 45.9594 52.5191C46.0422 52.5675 46.1039 52.6425 46.1438 52.7441H46.1781V51.3753H46.7938V54.9222H46.2125L46.1938 54.6347H46.1531C46.0859 54.8519 45.9219 54.9597 45.6594 54.9597ZM45.925 54.4066C45.9914 54.4066 46.0414 54.3964 46.075 54.3753C46.1078 54.3527 46.1328 54.3089 46.15 54.2441C46.1688 54.1527 46.1781 53.9722 46.1781 53.7035C46.1781 53.4472 46.1719 53.2839 46.1594 53.2128C46.1469 53.13 46.1227 53.0746 46.0875 53.0472C46.0516 53.0183 45.9977 53.0035 45.925 53.0035C45.8391 53.0035 45.7797 53.016 45.7469 53.041C45.7133 53.066 45.6906 53.1246 45.6781 53.216C45.6672 53.3058 45.6625 53.4683 45.6625 53.7035C45.6625 53.9394 45.6672 54.1027 45.6781 54.1941C45.6906 54.2863 45.7133 54.3441 45.7469 54.3691C45.7797 54.3941 45.8391 54.4066 45.925 54.4066Z" fill="#F8C703"/>
<path d="M48.5838 54.6316H48.5463C48.4689 54.8503 48.2908 54.9597 48.0119 54.9597C47.8557 54.9597 47.7377 54.9292 47.6588 54.8691C47.5814 54.8089 47.5291 54.7183 47.5025 54.5972C47.4752 54.4746 47.4619 54.305 47.4619 54.0878V52.4878H48.0775V53.8035C48.0775 54.0082 48.0822 54.1488 48.0932 54.2253C48.1033 54.3027 48.1229 54.3519 48.1525 54.3722C48.1838 54.391 48.2385 54.4003 48.3182 54.4003C48.3971 54.4003 48.4533 54.3847 48.4869 54.3535C48.5197 54.3222 48.5408 54.2628 48.5494 54.1753C48.5596 54.0878 48.565 53.941 48.565 53.7347V52.4878H49.1807V54.9222H48.6025L48.5838 54.6316Z" fill="#F8C703"/>
<path d="M50.3117 54.9597C50.1156 54.9597 49.9742 54.9003 49.8867 54.7816C49.8007 54.6628 49.7585 54.4753 49.7585 54.2191C49.7585 54.0316 49.7773 53.8847 49.8148 53.7785C49.8539 53.6722 49.9187 53.5941 50.0085 53.5441C50.1 53.4941 50.2273 53.4691 50.3898 53.4691C50.5039 53.4691 50.657 53.4769 50.8492 53.491V53.3785C50.8492 53.2456 50.8382 53.1519 50.8179 53.0972C50.7968 53.041 50.7585 53.0058 50.7023 52.991C50.646 52.9745 50.55 52.966 50.4148 52.966C50.2789 52.966 50.1 52.9769 49.8773 52.9972V52.5191C50.1164 52.4714 50.357 52.4472 50.5992 52.4472C50.8382 52.4472 51.0195 52.48 51.1429 52.5441C51.2679 52.6089 51.3523 52.7097 51.396 52.8472C51.4414 52.9831 51.4648 53.1777 51.4648 53.4316V54.9222H50.8773L50.8585 54.6347H50.8242C50.782 54.7535 50.7148 54.8378 50.621 54.8878C50.5289 54.9355 50.4257 54.9597 50.3117 54.9597ZM50.5804 54.4253C50.6343 54.4253 50.6781 54.4191 50.7117 54.4066C50.7445 54.3941 50.7726 54.3706 50.796 54.3347C50.8312 54.2808 50.8492 54.1714 50.8492 54.0066V53.8847H50.5617C50.4781 53.8847 50.4226 53.9027 50.396 53.9378C50.3687 53.9738 50.3554 54.0503 50.3554 54.1691C50.3554 54.2691 50.3687 54.337 50.396 54.3722C50.4226 54.4081 50.4843 54.4253 50.5804 54.4253Z" fill="#F8C703"/>
<path d="M52.1312 54.9222V51.3753H52.7469V54.9222H52.1312Z" fill="#F8C703"/>
</svg>
