<svg xmlns="http://www.w3.org/2000/svg" xmlns:xlink="http://www.w3.org/1999/xlink" width="40" zoomAndPan="magnify" viewBox="0 0 30 30.000001" height="40" preserveAspectRatio="xMidYMid meet" version="1.0"><defs><clipPath id="5d5788b5e0"><path d="M 7.851562 4.957031 L 22.738281 4.957031 L 22.738281 19.84375 L 7.851562 19.84375 Z M 7.851562 4.957031 " clip-rule="nonzero"/></clipPath><clipPath id="71ae9f3c88"><path d="M 15.292969 4.957031 C 11.183594 4.957031 7.851562 8.289062 7.851562 12.398438 C 7.851562 16.511719 11.183594 19.84375 15.292969 19.84375 C 19.40625 19.84375 22.738281 16.511719 22.738281 12.398438 C 22.738281 8.289062 19.40625 4.957031 15.292969 4.957031 Z M 15.292969 4.957031 " clip-rule="nonzero"/></clipPath><clipPath id="1d901dc0eb"><path d="M 11.210938 2.902344 L 19.398438 2.902344 L 19.398438 19.742188 L 11.210938 19.742188 Z M 11.210938 2.902344 " clip-rule="nonzero"/></clipPath></defs><g clip-path="url(#5d5788b5e0)"><g clip-path="url(#71ae9f3c88)"><path fill="#dbb800" d="M 7.851562 4.957031 L 22.738281 4.957031 L 22.738281 19.84375 L 7.851562 19.84375 Z M 7.851562 4.957031 " fill-opacity="1" fill-rule="nonzero"/></g></g><g clip-path="url(#1d901dc0eb)"><path fill="#868d89" d="M 14.382812 5.507812 C 14.421875 5.3125 14.484375 5.078125 14.554688 4.867188 C 14.507812 4.660156 14.550781 4.433594 14.640625 4.214844 C 14.78125 3.886719 15.039062 3.578125 15.28125 3.402344 C 15.410156 3.308594 15.570312 3.273438 15.699219 3.1875 C 15.746094 3.15625 15.796875 3.144531 15.839844 3.117188 L 15.855469 3.105469 C 15.875 3.089844 15.894531 3.070312 15.914062 3.0625 C 15.96875 3.039062 15.996094 3.082031 15.996094 3.089844 C 16.003906 3.097656 16.015625 3.128906 15.988281 3.160156 C 15.984375 3.167969 15.953125 3.1875 15.929688 3.203125 C 15.925781 3.207031 15.917969 3.21875 15.910156 3.226562 C 15.894531 3.261719 15.875 3.304688 15.855469 3.359375 C 15.796875 3.523438 15.746094 3.761719 15.640625 4 C 15.523438 4.265625 15.257812 4.546875 15.15625 4.664062 C 15.085938 4.75 14.984375 4.785156 14.882812 4.816406 C 14.804688 4.835938 14.726562 4.851562 14.667969 4.90625 C 14.539062 5.277344 14.445312 5.726562 14.464844 5.878906 C 14.472656 5.914062 14.484375 5.949219 14.492188 5.984375 C 14.59375 6.324219 14.667969 6.671875 14.71875 7.019531 L 14.730469 6.988281 C 14.773438 6.820312 14.84375 6.5625 14.914062 6.375 C 14.957031 6.253906 15.003906 6.164062 15.039062 6.128906 C 15.050781 6.117188 15.066406 6.105469 15.082031 6.09375 C 15.085938 6.078125 15.089844 6.0625 15.101562 6.054688 C 15.109375 6.046875 15.121094 6.039062 15.128906 6.03125 C 15.125 5.996094 15.128906 5.949219 15.144531 5.894531 C 15.1875 5.742188 15.300781 5.519531 15.328125 5.460938 C 15.398438 5.324219 15.449219 5.191406 15.566406 5.085938 C 15.722656 4.941406 16.308594 4.617188 16.734375 4.515625 C 16.828125 4.492188 16.914062 4.480469 16.988281 4.480469 C 17.007812 4.480469 17.023438 4.480469 17.039062 4.484375 C 17.105469 4.488281 17.15625 4.507812 17.199219 4.539062 C 17.214844 4.550781 17.222656 4.566406 17.222656 4.585938 C 17.222656 4.597656 17.21875 4.617188 17.199219 4.640625 C 17.175781 4.667969 17.09375 4.714844 17.082031 4.722656 C 16.972656 4.804688 16.898438 4.914062 16.820312 5.023438 C 16.753906 5.113281 16.726562 5.222656 16.667969 5.308594 C 16.515625 5.554688 16.136719 5.832031 15.847656 5.894531 C 15.648438 5.941406 15.453125 5.960938 15.277344 6.066406 C 15.226562 6.125 15.171875 6.167969 15.121094 6.214844 C 15.089844 6.242188 15.0625 6.316406 15.027344 6.414062 C 14.9375 6.660156 14.84375 7.035156 14.8125 7.152344 C 14.800781 7.203125 14.804688 7.265625 14.804688 7.324219 C 14.804688 7.371094 14.796875 7.417969 14.785156 7.457031 C 14.796875 7.5625 14.808594 7.671875 14.820312 7.777344 C 14.824219 7.78125 14.824219 7.785156 14.828125 7.792969 C 14.835938 7.804688 14.835938 7.820312 14.828125 7.832031 C 14.867188 8.210938 14.902344 8.582031 14.945312 8.957031 C 14.972656 9.1875 14.996094 9.414062 15.023438 9.644531 L 15.023438 9.640625 C 15.125 9.066406 15.34375 8.441406 15.53125 7.886719 C 15.53125 7.878906 15.53125 7.875 15.53125 7.867188 C 15.542969 7.730469 15.546875 7.40625 15.542969 7.371094 C 15.527344 7.191406 15.59375 7.050781 15.632812 6.886719 C 15.664062 6.746094 15.742188 6.628906 15.835938 6.523438 C 15.921875 6.425781 16.023438 6.332031 16.101562 6.238281 C 16.179688 6.148438 16.230469 6.105469 16.269531 6.085938 C 16.304688 6.066406 16.332031 6.0625 16.34375 6.0625 C 16.34375 6.0625 16.34375 6.0625 16.347656 6.0625 C 16.394531 6.0625 16.40625 6.097656 16.410156 6.109375 C 16.417969 6.140625 16.421875 6.1875 16.417969 6.242188 C 16.410156 6.347656 16.382812 6.484375 16.367188 6.550781 C 16.328125 6.789062 16.300781 7.0625 16.160156 7.273438 C 16.078125 7.398438 15.972656 7.503906 15.871094 7.613281 C 15.777344 7.714844 15.695312 7.820312 15.640625 7.953125 L 15.640625 7.957031 C 15.640625 7.960938 15.640625 7.960938 15.640625 7.960938 C 15.636719 7.964844 15.632812 7.972656 15.625 7.976562 C 15.503906 8.34375 15.367188 8.734375 15.261719 9.121094 L 15.265625 9.117188 C 15.34375 9 15.40625 8.929688 15.710938 8.660156 C 15.902344 8.421875 16.03125 8.238281 16.082031 8.167969 C 16.3125 7.863281 16.652344 7.726562 16.988281 7.566406 C 17.054688 7.535156 17.339844 7.410156 17.394531 7.390625 C 17.414062 7.382812 17.425781 7.382812 17.425781 7.382812 C 17.449219 7.382812 17.460938 7.390625 17.472656 7.402344 C 17.480469 7.410156 17.492188 7.425781 17.492188 7.449219 C 17.496094 7.46875 17.492188 7.496094 17.480469 7.53125 C 17.4375 7.671875 17.257812 7.960938 17.21875 8 C 16.992188 8.226562 16.792969 8.464844 16.480469 8.558594 C 16.359375 8.59375 16.179688 8.609375 16.023438 8.652344 C 15.929688 8.671875 15.84375 8.703125 15.796875 8.757812 C 15.792969 8.761719 15.785156 8.765625 15.777344 8.765625 C 15.488281 9.023438 15.4375 9.085938 15.359375 9.203125 C 15.332031 9.246094 15.203125 9.457031 15.140625 9.683594 C 15.140625 9.691406 15.140625 9.695312 15.136719 9.699219 C 15.085938 10 15.070312 10.289062 15.109375 10.539062 C 15.113281 10.550781 15.109375 10.566406 15.105469 10.574219 C 15.226562 12.035156 15.316406 13.515625 15.550781 14.945312 L 15.550781 14.941406 C 15.597656 14.578125 15.710938 14.183594 15.863281 13.804688 C 15.863281 13.796875 15.867188 13.789062 15.871094 13.78125 C 15.875 13.773438 15.878906 13.765625 15.882812 13.757812 C 15.980469 13.523438 16.089844 13.292969 16.203125 13.082031 C 16.257812 12.917969 16.296875 12.773438 16.316406 12.699219 C 16.371094 12.515625 16.417969 12.328125 16.492188 12.152344 C 16.5 12.128906 16.515625 12.09375 16.527344 12.042969 C 16.527344 12.042969 16.527344 12.039062 16.527344 12.035156 C 16.550781 11.832031 16.527344 11.625 16.515625 11.421875 C 16.507812 11.203125 16.515625 10.988281 16.617188 10.78125 C 16.667969 10.667969 16.742188 10.558594 16.804688 10.449219 C 16.828125 10.414062 16.851562 10.378906 16.871094 10.34375 C 16.878906 10.332031 16.902344 10.292969 16.90625 10.285156 C 16.921875 10.273438 16.9375 10.265625 16.949219 10.265625 C 16.953125 10.265625 16.953125 10.265625 16.957031 10.265625 C 16.972656 10.269531 16.988281 10.277344 17 10.292969 C 17.019531 10.320312 17.03125 10.355469 17.039062 10.394531 C 17.046875 10.4375 17.050781 10.484375 17.0625 10.519531 C 17.269531 11.152344 16.945312 11.5625 16.652344 12.058594 C 16.632812 12.117188 16.621094 12.164062 16.605469 12.195312 C 16.546875 12.34375 16.5 12.496094 16.457031 12.648438 L 16.464844 12.636719 C 16.574219 12.464844 16.683594 12.3125 16.785156 12.1875 C 16.953125 11.988281 17.15625 11.875 17.324219 11.695312 C 17.398438 11.617188 17.441406 11.503906 17.511719 11.414062 C 17.515625 11.40625 17.527344 11.394531 17.535156 11.382812 C 17.539062 11.371094 17.542969 11.351562 17.546875 11.332031 C 17.589844 11.21875 17.726562 10.960938 17.753906 10.917969 C 17.8125 10.8125 17.839844 10.695312 17.898438 10.59375 C 18.039062 10.351562 18.292969 10.144531 18.53125 10.003906 C 18.621094 9.949219 18.941406 9.871094 19.140625 9.808594 C 19.203125 9.789062 19.261719 9.761719 19.273438 9.757812 C 19.289062 9.742188 19.304688 9.742188 19.316406 9.742188 C 19.324219 9.742188 19.332031 9.742188 19.335938 9.742188 C 19.351562 9.75 19.375 9.761719 19.375 9.796875 C 19.375 9.800781 19.375 9.808594 19.375 9.824219 C 19.367188 9.839844 19.339844 9.90625 19.339844 9.910156 C 19.320312 9.964844 19.304688 10.023438 19.285156 10.078125 C 19.222656 10.261719 19.144531 10.460938 18.988281 10.589844 C 18.792969 10.75 18.632812 10.972656 18.40625 11.089844 C 18.265625 11.167969 18.105469 11.207031 17.957031 11.261719 C 17.820312 11.3125 17.691406 11.375 17.601562 11.5 C 17.597656 11.503906 17.59375 11.507812 17.589844 11.511719 C 17.527344 11.601562 17.484375 11.707031 17.414062 11.78125 C 17.25 11.960938 17.042969 12.070312 16.882812 12.265625 C 16.703125 12.484375 16.5 12.785156 16.316406 13.121094 C 16.316406 13.125 16.316406 13.132812 16.3125 13.136719 C 16.308594 13.148438 16.300781 13.15625 16.292969 13.164062 C 16.273438 13.203125 16.25 13.238281 16.230469 13.277344 L 16.238281 13.269531 C 16.535156 12.996094 16.777344 12.820312 17.085938 12.675781 C 17.089844 12.671875 17.09375 12.664062 17.097656 12.660156 C 17.121094 12.632812 17.164062 12.597656 17.210938 12.558594 C 17.324219 12.460938 17.40625 12.351562 17.527344 12.257812 C 17.777344 12.058594 18.003906 11.820312 18.3125 11.707031 C 18.441406 11.65625 18.617188 11.664062 18.753906 11.65625 C 18.808594 11.65625 18.871094 11.652344 18.925781 11.640625 C 18.941406 11.640625 18.972656 11.636719 18.972656 11.636719 C 18.972656 11.636719 18.976562 11.636719 18.980469 11.636719 C 19.003906 11.636719 19.027344 11.652344 19.039062 11.675781 C 19.046875 11.699219 19.039062 11.730469 19.015625 11.746094 C 19.015625 11.746094 18.988281 11.761719 18.980469 11.773438 C 18.933594 11.8125 18.886719 11.878906 18.851562 11.933594 C 18.75 12.085938 18.628906 12.238281 18.484375 12.351562 C 18.320312 12.480469 18.140625 12.578125 17.953125 12.65625 C 17.851562 12.699219 17.746094 12.75 17.628906 12.753906 C 17.625 12.753906 17.625 12.753906 17.617188 12.753906 L 17.613281 12.753906 C 17.453125 12.753906 17.304688 12.722656 17.148438 12.785156 C 17.140625 12.785156 17.132812 12.785156 17.125 12.785156 C 16.820312 12.933594 16.582031 13.109375 16.28125 13.394531 C 16.21875 13.453125 16.097656 13.601562 15.984375 13.808594 C 15.789062 14.296875 15.652344 14.804688 15.648438 15.25 C 15.648438 15.355469 15.652344 15.476562 15.667969 15.585938 C 15.691406 15.695312 15.714844 15.808594 15.738281 15.921875 C 15.863281 16.488281 16.039062 17.046875 16.199219 17.605469 L 16.199219 17.597656 C 16.203125 17.476562 16.214844 17.355469 16.230469 17.234375 C 16.230469 17.230469 16.226562 17.21875 16.230469 17.203125 C 16.230469 17.203125 16.230469 17.203125 16.230469 17.195312 C 16.234375 17.183594 16.242188 17.152344 16.25 17.117188 C 16.265625 17.035156 16.28125 16.949219 16.304688 16.867188 C 16.332031 16.75 16.367188 16.628906 16.40625 16.507812 C 16.394531 16.46875 16.386719 16.394531 16.382812 16.3125 C 16.378906 16.261719 16.375 16.210938 16.371094 16.160156 C 16.355469 16.109375 16.351562 16.058594 16.351562 16.003906 C 16.351562 15.988281 16.347656 15.976562 16.34375 15.960938 C 16.214844 15.597656 16.019531 15.292969 16.03125 14.886719 C 16.03125 14.75 16.03125 14.613281 16.015625 14.476562 C 16.015625 14.464844 16.015625 14.378906 16.03125 14.347656 C 16.046875 14.3125 16.070312 14.296875 16.09375 14.296875 C 16.09375 14.296875 16.09375 14.296875 16.097656 14.296875 C 16.105469 14.296875 16.132812 14.300781 16.152344 14.328125 C 16.195312 14.378906 16.351562 14.644531 16.363281 14.664062 C 16.519531 14.945312 16.578125 15.261719 16.5625 15.582031 C 16.554688 15.675781 16.523438 15.773438 16.5 15.875 C 16.488281 15.917969 16.480469 15.957031 16.476562 16 C 16.488281 16.070312 16.496094 16.160156 16.5 16.242188 L 16.5 16.234375 C 16.609375 15.941406 16.734375 15.65625 16.855469 15.386719 C 16.855469 15.382812 16.855469 15.378906 16.855469 15.375 C 16.855469 15.359375 16.863281 15.335938 16.871094 15.304688 C 16.914062 15.160156 17.046875 14.859375 17.054688 14.804688 C 17.074219 14.617188 17.066406 14.445312 17.070312 14.28125 C 17.074219 14.015625 17.113281 13.769531 17.351562 13.503906 C 17.4375 13.40625 17.53125 13.285156 17.601562 13.179688 C 17.609375 13.167969 17.613281 13.148438 17.621094 13.128906 C 17.628906 13.105469 17.636719 13.085938 17.648438 13.074219 C 17.664062 13.050781 17.6875 13.042969 17.707031 13.042969 C 17.710938 13.042969 17.710938 13.042969 17.710938 13.042969 C 17.726562 13.042969 17.742188 13.046875 17.757812 13.054688 C 17.78125 13.074219 17.804688 13.109375 17.820312 13.152344 C 17.84375 13.226562 17.84375 13.328125 17.855469 13.371094 C 17.988281 14.03125 17.78125 14.355469 17.507812 14.6875 C 17.335938 14.894531 17.140625 15.101562 16.984375 15.402344 C 16.808594 15.78125 16.628906 16.199219 16.5 16.628906 L 16.5 16.625 C 16.628906 16.425781 16.800781 16.253906 16.957031 16.078125 C 16.96875 16.066406 16.980469 16.050781 17 16.035156 C 17.078125 15.875 17.121094 15.707031 17.210938 15.582031 C 17.304688 15.453125 17.429688 15.347656 17.585938 15.230469 C 17.6875 15.152344 17.816406 15.113281 17.914062 15.035156 C 18.015625 14.953125 18.132812 14.886719 18.246094 14.824219 C 18.253906 14.820312 18.304688 14.785156 18.332031 14.773438 C 18.347656 14.765625 18.367188 14.765625 18.371094 14.765625 C 18.40625 14.765625 18.425781 14.785156 18.433594 14.8125 C 18.457031 14.902344 18.4375 14.988281 18.398438 15.074219 C 18.367188 15.144531 18.328125 15.210938 18.296875 15.273438 C 18.183594 15.554688 17.84375 15.871094 17.558594 15.980469 C 17.476562 16.011719 17.382812 16.027344 17.289062 16.042969 C 17.207031 16.058594 17.136719 16.078125 17.078125 16.125 C 17.070312 16.132812 17.066406 16.136719 17.058594 16.140625 C 17.054688 16.144531 17.046875 16.152344 17.042969 16.160156 C 16.886719 16.335938 16.714844 16.507812 16.585938 16.710938 C 16.527344 16.800781 16.46875 16.898438 16.414062 16.992188 C 16.414062 16.996094 16.402344 17.015625 16.398438 17.035156 C 16.390625 17.066406 16.382812 17.105469 16.371094 17.140625 C 16.296875 17.5625 16.292969 17.976562 16.425781 18.363281 C 16.429688 18.378906 16.429688 18.390625 16.425781 18.402344 C 16.492188 18.578125 16.601562 18.757812 16.695312 18.9375 C 16.820312 19.175781 16.925781 19.417969 16.917969 19.664062 C 16.917969 19.695312 16.886719 19.722656 16.855469 19.722656 C 16.820312 19.71875 16.792969 19.691406 16.796875 19.65625 C 16.804688 19.4375 16.703125 19.214844 16.589844 18.996094 C 16.46875 18.761719 16.328125 18.527344 16.269531 18.300781 C 16.117188 17.710938 15.925781 17.117188 15.761719 16.515625 C 15.648438 16.390625 15.523438 16.226562 15.390625 16.078125 C 15.234375 15.976562 14.832031 15.726562 14.523438 15.597656 C 14.457031 15.570312 14.398438 15.546875 14.347656 15.535156 L 14.34375 15.535156 C 14.335938 15.535156 14.332031 15.539062 14.324219 15.539062 C 14.324219 15.539062 14.320312 15.539062 14.320312 15.539062 C 14.308594 15.539062 14.277344 15.527344 14.265625 15.523438 L 14.261719 15.523438 C 14.25 15.523438 14.242188 15.523438 14.234375 15.527344 C 14.1875 15.539062 14.136719 15.5625 14.085938 15.585938 C 14.023438 15.613281 13.960938 15.640625 13.890625 15.640625 C 13.855469 15.644531 13.820312 15.644531 13.785156 15.644531 L 13.777344 15.644531 C 13.609375 15.644531 13.441406 15.617188 13.25 15.5625 C 13 15.492188 12.769531 15.335938 12.546875 15.214844 C 12.46875 15.167969 12.359375 15.152344 12.273438 15.132812 C 12.257812 15.128906 12.226562 15.128906 12.199219 15.132812 C 12.195312 15.132812 12.191406 15.132812 12.1875 15.132812 C 12.160156 15.128906 12.136719 15.121094 12.125 15.113281 C 12.113281 15.101562 12.101562 15.085938 12.097656 15.070312 C 12.097656 15.054688 12.097656 15.035156 12.113281 15.015625 C 12.140625 14.972656 12.1875 14.941406 12.253906 14.917969 C 12.335938 14.886719 12.453125 14.871094 12.582031 14.867188 C 12.921875 14.859375 13.386719 14.929688 13.695312 15.019531 C 13.835938 15.0625 13.949219 15.105469 14.003906 15.152344 C 14.046875 15.1875 14.082031 15.222656 14.113281 15.265625 C 14.148438 15.308594 14.183594 15.359375 14.242188 15.40625 C 14.25 15.40625 14.261719 15.40625 14.269531 15.40625 C 14.273438 15.40625 14.28125 15.40625 14.285156 15.40625 C 14.363281 15.414062 14.460938 15.441406 14.570312 15.488281 C 14.726562 15.554688 14.90625 15.648438 15.066406 15.742188 L 15.0625 15.738281 C 15.0625 15.738281 15.058594 15.734375 15.058594 15.734375 C 15.015625 15.695312 14.96875 15.65625 14.917969 15.609375 C 14.875 15.585938 14.835938 15.550781 14.792969 15.511719 C 14.441406 15.230469 13.976562 14.882812 13.617188 14.527344 C 13.609375 14.523438 13.601562 14.515625 13.59375 14.507812 C 13.566406 14.46875 13.511719 14.445312 13.453125 14.425781 C 13.378906 14.394531 13.308594 14.375 13.257812 14.347656 C 12.9375 14.175781 12.632812 13.859375 12.46875 13.535156 C 12.335938 13.28125 12.265625 13.003906 12.144531 12.75 C 12.113281 12.695312 12.046875 12.59375 12.046875 12.59375 C 12.03125 12.566406 12.03125 12.535156 12.050781 12.515625 C 12.066406 12.503906 12.082031 12.5 12.097656 12.5 C 12.109375 12.5 12.117188 12.5 12.132812 12.507812 C 12.132812 12.507812 12.230469 12.574219 12.28125 12.609375 C 12.507812 12.761719 12.703125 12.945312 12.914062 13.121094 C 13.152344 13.320312 13.28125 13.53125 13.386719 13.757812 C 13.484375 13.964844 13.558594 14.1875 13.691406 14.421875 C 13.96875 14.699219 14.316406 14.980469 14.628906 15.222656 L 14.628906 15.21875 C 14.613281 15.167969 14.601562 15.113281 14.597656 15.050781 C 14.585938 14.902344 14.484375 14.792969 14.382812 14.691406 C 14.261719 14.574219 14.132812 14.464844 14.074219 14.324219 C 14.003906 14.15625 14.015625 14.175781 13.988281 14.039062 C 13.964844 13.929688 13.945312 13.820312 13.921875 13.707031 C 13.894531 13.570312 13.863281 13.425781 13.835938 13.285156 C 13.832031 13.269531 13.8125 13.234375 13.8125 13.234375 C 13.796875 13.210938 13.796875 13.179688 13.820312 13.15625 C 13.84375 13.136719 13.878906 13.136719 13.898438 13.152344 C 13.898438 13.152344 14.011719 13.242188 14.066406 13.289062 C 14.304688 13.5 14.503906 13.757812 14.648438 14.039062 C 14.765625 14.265625 14.75 14.515625 14.734375 14.761719 C 14.726562 14.949219 14.71875 15.136719 14.804688 15.308594 C 14.832031 15.355469 14.863281 15.398438 14.894531 15.429688 C 14.929688 15.457031 14.964844 15.488281 15 15.515625 C 15.015625 15.527344 15.03125 15.539062 15.046875 15.546875 C 15.058594 15.554688 15.070312 15.566406 15.074219 15.578125 C 15.105469 15.601562 15.128906 15.621094 15.15625 15.644531 C 15.339844 15.8125 15.535156 16.042969 15.710938 16.25 L 15.707031 16.242188 C 15.679688 16.144531 15.660156 16.046875 15.636719 15.953125 C 15.625 15.902344 15.613281 15.851562 15.605469 15.800781 C 15.589844 15.742188 15.578125 15.679688 15.566406 15.617188 C 15.449219 15.03125 15.359375 14.429688 15.289062 13.828125 C 15.273438 13.820312 15.261719 13.804688 15.257812 13.785156 C 15.222656 13.398438 14.941406 12.691406 14.597656 12.011719 C 14.476562 11.828125 14.347656 11.722656 14.15625 11.625 C 14.039062 11.566406 13.914062 11.488281 13.792969 11.429688 C 13.730469 11.421875 13.640625 11.417969 13.578125 11.429688 C 13.375 11.472656 13.210938 11.523438 13.0625 11.546875 C 13.003906 11.558594 12.941406 11.5625 12.882812 11.566406 L 12.878906 11.566406 C 12.789062 11.566406 12.695312 11.550781 12.601562 11.507812 C 12.476562 11.457031 12.34375 11.355469 12.191406 11.179688 C 12.160156 11.144531 12.097656 11.097656 12.046875 11.046875 C 12.007812 11.003906 11.976562 10.953125 11.964844 10.914062 C 11.964844 10.894531 11.964844 10.875 11.980469 10.859375 C 11.992188 10.839844 12.03125 10.824219 12.042969 10.820312 C 12.148438 10.800781 12.253906 10.785156 12.363281 10.785156 L 12.367188 10.785156 C 12.40625 10.785156 12.449219 10.789062 12.488281 10.792969 C 12.808594 10.832031 13.125 10.832031 13.421875 10.984375 C 13.484375 11.015625 13.601562 11.125 13.699219 11.210938 C 13.753906 11.257812 13.800781 11.304688 13.828125 11.3125 C 13.835938 11.316406 13.84375 11.320312 13.847656 11.320312 C 13.972656 11.382812 14.097656 11.457031 14.214844 11.519531 C 14.28125 11.554688 14.335938 11.585938 14.390625 11.625 L 14.386719 11.617188 C 14.09375 11.089844 13.777344 10.632812 13.535156 10.429688 C 13.492188 10.390625 13.398438 10.339844 13.289062 10.277344 C 13.25 10.269531 13.210938 10.265625 13.171875 10.261719 C 13.089844 10.261719 13.003906 10.261719 12.925781 10.25 C 12.703125 10.214844 12.46875 10.128906 12.273438 10.011719 C 11.882812 9.789062 11.730469 9.574219 11.578125 9.320312 C 11.480469 9.164062 11.386719 8.988281 11.230469 8.789062 C 11.210938 8.765625 11.214844 8.742188 11.21875 8.734375 C 11.222656 8.71875 11.230469 8.707031 11.246094 8.699219 C 11.257812 8.691406 11.265625 8.6875 11.285156 8.6875 C 11.292969 8.6875 11.300781 8.691406 11.3125 8.699219 C 11.328125 8.703125 11.359375 8.722656 11.394531 8.75 C 11.441406 8.777344 11.503906 8.796875 11.554688 8.808594 C 11.753906 8.855469 11.953125 8.914062 12.15625 8.96875 C 12.367188 9.023438 12.539062 9.15625 12.691406 9.320312 C 12.839844 9.472656 12.964844 9.648438 13.089844 9.796875 C 13.1875 9.910156 13.289062 10.074219 13.40625 10.179688 C 13.410156 10.179688 13.414062 10.179688 13.421875 10.179688 C 13.441406 10.1875 13.453125 10.199219 13.460938 10.214844 C 13.539062 10.261719 13.644531 10.359375 13.703125 10.410156 C 13.710938 10.414062 13.714844 10.425781 13.71875 10.433594 C 13.875 10.59375 14.046875 10.828125 14.226562 11.101562 L 14.226562 11.097656 C 14.164062 10.882812 14.113281 10.664062 14.070312 10.449219 C 14.058594 10.390625 14.058594 10.347656 14 10.164062 C 13.796875 10.046875 13.566406 9.796875 13.460938 9.511719 C 13.421875 9.410156 13.410156 9.300781 13.40625 9.199219 C 13.398438 9.109375 13.398438 9.023438 13.378906 8.96875 C 13.347656 8.871094 13.34375 8.765625 13.300781 8.671875 C 13.289062 8.648438 13.273438 8.609375 13.257812 8.585938 C 13.257812 8.582031 13.246094 8.570312 13.242188 8.5625 C 13.234375 8.550781 13.230469 8.546875 13.230469 8.539062 C 13.222656 8.515625 13.234375 8.5 13.242188 8.488281 C 13.25 8.480469 13.257812 8.46875 13.277344 8.464844 C 13.304688 8.457031 13.34375 8.464844 13.394531 8.5 C 13.511719 8.582031 13.710938 8.816406 13.75 8.875 C 13.824219 8.980469 13.914062 9.058594 13.996094 9.15625 C 14.144531 9.347656 14.195312 9.5 14.195312 9.742188 C 14.195312 9.832031 14.175781 9.894531 14.15625 9.953125 C 14.140625 10.003906 14.125 10.054688 14.125 10.132812 C 14.125 10.140625 14.125 10.144531 14.121094 10.148438 C 14.179688 10.324219 14.179688 10.371094 14.191406 10.429688 C 14.257812 10.75 14.332031 11.085938 14.453125 11.386719 C 14.496094 11.484375 14.53125 11.578125 14.566406 11.675781 C 14.601562 11.738281 14.632812 11.800781 14.664062 11.863281 C 14.679688 11.894531 14.699219 11.925781 14.714844 11.960938 C 14.71875 11.960938 14.71875 11.96875 14.71875 11.972656 C 14.730469 11.988281 14.742188 12.007812 14.753906 12.027344 C 14.757812 12.035156 14.761719 12.046875 14.761719 12.058594 C 14.945312 12.425781 15.105469 12.796875 15.222656 13.121094 L 15.21875 13.101562 C 15.085938 11.730469 15.007812 10.34375 14.847656 8.988281 C 14.800781 8.601562 14.769531 8.210938 14.726562 7.824219 C 14.652344 7.628906 14.617188 7.542969 14.488281 7.210938 C 14.453125 7.121094 14.390625 7.035156 14.316406 6.976562 C 14.285156 6.953125 14.253906 6.921875 14.226562 6.890625 C 13.765625 6.871094 13.207031 6.761719 12.902344 6.324219 C 12.800781 6.179688 12.578125 5.863281 12.546875 5.796875 C 12.527344 5.761719 12.539062 5.734375 12.542969 5.726562 C 12.550781 5.714844 12.558594 5.707031 12.570312 5.703125 C 12.578125 5.699219 12.585938 5.695312 12.601562 5.695312 C 12.613281 5.695312 12.636719 5.703125 12.664062 5.710938 C 12.769531 5.742188 13.003906 5.839844 13.085938 5.859375 C 13.261719 5.894531 13.414062 5.910156 13.5625 6.015625 C 13.84375 6.214844 13.820312 6.222656 14.03125 6.453125 C 14.148438 6.585938 14.253906 6.769531 14.390625 6.886719 C 14.484375 6.960938 14.5625 7.0625 14.601562 7.171875 C 14.628906 7.238281 14.652344 7.296875 14.667969 7.34375 L 14.667969 7.335938 C 14.613281 6.894531 14.535156 6.460938 14.40625 6.035156 C 14.398438 6 14.382812 5.960938 14.375 5.925781 C 14.375 5.925781 14.375 5.925781 14.375 5.921875 C 14.261719 5.492188 14.214844 5.039062 14.074219 4.617188 C 13.898438 4.398438 13.660156 4.171875 13.460938 4.03125 C 13.234375 3.875 13.085938 3.601562 12.902344 3.398438 C 12.835938 3.324219 12.777344 3.238281 12.703125 3.171875 C 12.691406 3.15625 12.605469 3.089844 12.578125 3.046875 C 12.550781 3.015625 12.554688 2.984375 12.5625 2.96875 C 12.570312 2.949219 12.59375 2.925781 12.625 2.917969 C 12.652344 2.90625 12.699219 2.90625 12.710938 2.90625 C 12.734375 2.902344 12.753906 2.902344 12.773438 2.902344 L 12.78125 2.902344 C 13.007812 2.90625 13.132812 3.039062 13.320312 3.175781 C 13.679688 3.441406 13.855469 3.578125 13.960938 3.753906 C 14.066406 3.929688 14.105469 4.148438 14.179688 4.585938 C 14.179688 4.59375 14.179688 4.601562 14.179688 4.609375 C 14.269531 4.902344 14.320312 5.210938 14.382812 5.511719 Z M 14.382812 5.507812 " fill-opacity="1" fill-rule="evenodd"/></g><path fill="#868d89" d="M 9.773438 20.964844 L 10.332031 20.964844 C 10.511719 20.964844 10.648438 21.007812 10.746094 21.089844 C 10.84375 21.175781 10.890625 21.292969 10.890625 21.445312 C 10.890625 21.605469 10.84375 21.730469 10.746094 21.820312 C 10.648438 21.90625 10.511719 21.949219 10.332031 21.949219 L 10.007812 21.949219 L 10.007812 22.375 L 9.773438 22.375 Z M 10.007812 21.179688 L 10.007812 21.738281 L 10.324219 21.738281 C 10.550781 21.738281 10.664062 21.644531 10.664062 21.453125 C 10.664062 21.269531 10.550781 21.179688 10.324219 21.179688 Z M 10.007812 21.179688 " fill-opacity="1" fill-rule="nonzero"/><path fill="#868d89" d="M 12.4375 22.058594 L 11.726562 22.058594 L 11.59375 22.375 L 11.347656 22.375 L 11.96875 20.964844 L 12.210938 20.964844 L 12.828125 22.375 L 12.574219 22.375 Z M 12.347656 21.84375 L 12.082031 21.21875 L 11.816406 21.84375 Z M 12.347656 21.84375 " fill-opacity="1" fill-rule="nonzero"/><path fill="#868d89" d="M 14.308594 22.375 L 14.050781 21.949219 C 14.039062 21.949219 14.015625 21.949219 13.988281 21.949219 L 13.652344 21.949219 L 13.652344 22.375 L 13.417969 22.375 L 13.417969 20.964844 L 13.988281 20.964844 C 14.167969 20.964844 14.308594 21.007812 14.40625 21.089844 C 14.507812 21.175781 14.554688 21.292969 14.554688 21.445312 C 14.554688 21.558594 14.53125 21.65625 14.480469 21.734375 C 14.429688 21.8125 14.359375 21.867188 14.265625 21.90625 L 14.578125 22.375 Z M 13.652344 21.738281 L 13.988281 21.738281 C 14.214844 21.738281 14.332031 21.644531 14.332031 21.453125 C 14.332031 21.269531 14.214844 21.179688 13.988281 21.179688 L 13.652344 21.179688 Z M 13.652344 21.738281 " fill-opacity="1" fill-rule="nonzero"/><path fill="#868d89" d="M 16.636719 22.363281 L 16.734375 22.53125 C 16.617188 22.632812 16.488281 22.683594 16.351562 22.683594 C 16.261719 22.683594 16.179688 22.660156 16.101562 22.605469 C 16.023438 22.554688 15.957031 22.480469 15.902344 22.382812 C 15.691406 22.382812 15.515625 22.316406 15.371094 22.175781 C 15.230469 22.039062 15.15625 21.871094 15.15625 21.671875 C 15.15625 21.46875 15.230469 21.300781 15.371094 21.164062 C 15.515625 21.027344 15.695312 20.960938 15.902344 20.960938 C 16.113281 20.960938 16.292969 21.027344 16.433594 21.164062 C 16.578125 21.300781 16.652344 21.46875 16.652344 21.671875 C 16.652344 21.832031 16.605469 21.972656 16.511719 22.09375 C 16.417969 22.21875 16.296875 22.300781 16.144531 22.347656 C 16.222656 22.4375 16.300781 22.480469 16.378906 22.480469 C 16.453125 22.480469 16.539062 22.441406 16.636719 22.363281 Z M 15.546875 21.316406 C 15.449219 21.414062 15.398438 21.53125 15.398438 21.671875 C 15.398438 21.8125 15.449219 21.929688 15.546875 22.027344 C 15.648438 22.125 15.765625 22.171875 15.90625 22.171875 C 16.042969 22.171875 16.160156 22.125 16.257812 22.027344 C 16.359375 21.929688 16.40625 21.8125 16.40625 21.671875 C 16.40625 21.53125 16.359375 21.414062 16.257812 21.316406 C 16.160156 21.222656 16.042969 21.171875 15.90625 21.171875 C 15.765625 21.171875 15.648438 21.222656 15.546875 21.316406 Z M 15.546875 21.316406 " fill-opacity="1" fill-rule="nonzero"/><path fill="#868d89" d="M 18.535156 20.964844 L 18.535156 21.789062 C 18.535156 21.972656 18.480469 22.121094 18.371094 22.226562 C 18.261719 22.332031 18.113281 22.382812 17.921875 22.382812 C 17.730469 22.382812 17.582031 22.332031 17.472656 22.226562 C 17.363281 22.121094 17.308594 21.972656 17.308594 21.789062 L 17.308594 20.964844 L 17.546875 20.964844 L 17.546875 21.789062 C 17.546875 21.910156 17.578125 22.003906 17.648438 22.070312 C 17.714844 22.136719 17.808594 22.171875 17.925781 22.171875 C 18.039062 22.171875 18.128906 22.136719 18.195312 22.070312 C 18.261719 22.003906 18.296875 21.910156 18.296875 21.789062 L 18.296875 20.964844 Z M 18.535156 20.964844 " fill-opacity="1" fill-rule="nonzero"/><path fill="#868d89" d="M 20.28125 21.179688 L 19.511719 21.179688 L 19.511719 21.558594 L 20.203125 21.558594 L 20.203125 21.773438 L 19.511719 21.773438 L 19.511719 22.160156 L 20.308594 22.160156 L 20.308594 22.375 L 19.277344 22.375 L 19.277344 20.964844 L 20.28125 20.964844 Z M 20.28125 21.179688 " fill-opacity="1" fill-rule="nonzero"/><path fill="#868d89" d="M 9.332031 23.734375 L 8.847656 23.734375 L 8.746094 23.964844 L 8.648438 23.964844 L 9.046875 23.097656 L 9.136719 23.097656 L 9.53125 23.964844 L 9.4375 23.964844 Z M 9.300781 23.660156 L 9.089844 23.195312 L 8.882812 23.660156 Z M 9.300781 23.660156 " fill-opacity="1" fill-rule="nonzero"/><path fill="#868d89" d="M 10.679688 23.519531 C 10.734375 23.53125 10.78125 23.554688 10.8125 23.59375 C 10.84375 23.628906 10.859375 23.675781 10.859375 23.734375 C 10.859375 23.808594 10.832031 23.867188 10.777344 23.90625 C 10.722656 23.945312 10.640625 23.964844 10.53125 23.964844 L 10.132812 23.964844 L 10.132812 23.097656 L 10.507812 23.097656 C 10.605469 23.097656 10.679688 23.117188 10.730469 23.15625 C 10.785156 23.195312 10.8125 23.25 10.8125 23.324219 C 10.8125 23.371094 10.800781 23.410156 10.777344 23.445312 C 10.753906 23.476562 10.722656 23.503906 10.679688 23.519531 Z M 10.226562 23.175781 L 10.226562 23.488281 L 10.5 23.488281 C 10.570312 23.488281 10.625 23.476562 10.664062 23.449219 C 10.699219 23.421875 10.71875 23.382812 10.71875 23.332031 C 10.71875 23.28125 10.699219 23.242188 10.664062 23.214844 C 10.625 23.1875 10.570312 23.175781 10.5 23.175781 Z M 10.53125 23.890625 C 10.609375 23.890625 10.667969 23.878906 10.707031 23.851562 C 10.746094 23.824219 10.765625 23.78125 10.765625 23.726562 C 10.765625 23.617188 10.6875 23.5625 10.53125 23.5625 L 10.226562 23.5625 L 10.226562 23.890625 Z M 10.53125 23.890625 " fill-opacity="1" fill-rule="nonzero"/><path fill="#868d89" d="M 12.066406 23.734375 L 11.585938 23.734375 L 11.480469 23.964844 L 11.386719 23.964844 L 11.78125 23.097656 L 11.871094 23.097656 L 12.269531 23.964844 L 12.171875 23.964844 Z M 12.035156 23.660156 L 11.828125 23.195312 L 11.617188 23.660156 Z M 12.035156 23.660156 " fill-opacity="1" fill-rule="nonzero"/><path fill="#868d89" d="M 13.484375 23.886719 L 13.484375 23.964844 L 12.871094 23.964844 L 12.871094 23.097656 L 13.464844 23.097656 L 13.464844 23.179688 L 12.960938 23.179688 L 12.960938 23.488281 L 13.410156 23.488281 L 13.410156 23.5625 L 12.960938 23.5625 L 12.960938 23.886719 Z M 13.484375 23.886719 " fill-opacity="1" fill-rule="nonzero"/><path fill="#868d89" d="M 14.324219 23.179688 L 14.019531 23.179688 L 14.019531 23.097656 L 14.71875 23.097656 L 14.71875 23.179688 L 14.414062 23.179688 L 14.414062 23.964844 L 14.324219 23.964844 Z M 14.324219 23.179688 " fill-opacity="1" fill-rule="nonzero"/><path fill="#868d89" d="M 15.9375 23.886719 L 15.9375 23.964844 L 15.324219 23.964844 L 15.324219 23.097656 L 15.917969 23.097656 L 15.917969 23.179688 L 15.414062 23.179688 L 15.414062 23.488281 L 15.863281 23.488281 L 15.863281 23.5625 L 15.414062 23.5625 L 15.414062 23.886719 Z M 15.9375 23.886719 " fill-opacity="1" fill-rule="nonzero"/><path fill="#868d89" d="M 16.777344 23.179688 L 16.472656 23.179688 L 16.472656 23.097656 L 17.171875 23.097656 L 17.171875 23.179688 L 16.867188 23.179688 L 16.867188 23.964844 L 16.777344 23.964844 Z M 16.777344 23.179688 " fill-opacity="1" fill-rule="nonzero"/><path fill="#868d89" d="M 18.125 23.972656 C 18.011719 23.972656 17.925781 23.941406 17.863281 23.875 C 17.800781 23.8125 17.769531 23.71875 17.769531 23.59375 L 17.769531 23.097656 L 17.859375 23.097656 L 17.859375 23.59375 C 17.859375 23.691406 17.882812 23.769531 17.925781 23.816406 C 17.972656 23.867188 18.039062 23.890625 18.125 23.890625 C 18.210938 23.890625 18.277344 23.867188 18.324219 23.816406 C 18.367188 23.769531 18.390625 23.691406 18.390625 23.59375 L 18.390625 23.097656 L 18.480469 23.097656 L 18.480469 23.59375 C 18.480469 23.71875 18.449219 23.8125 18.386719 23.875 C 18.324219 23.941406 18.238281 23.972656 18.125 23.972656 Z M 18.125 23.972656 " fill-opacity="1" fill-rule="nonzero"/><path fill="#868d89" d="M 19.761719 23.519531 C 19.816406 23.53125 19.859375 23.554688 19.890625 23.59375 C 19.921875 23.628906 19.9375 23.675781 19.9375 23.734375 C 19.9375 23.808594 19.910156 23.867188 19.855469 23.90625 C 19.800781 23.945312 19.71875 23.964844 19.613281 23.964844 L 19.214844 23.964844 L 19.214844 23.097656 L 19.589844 23.097656 C 19.683594 23.097656 19.761719 23.117188 19.8125 23.15625 C 19.867188 23.195312 19.894531 23.25 19.894531 23.324219 C 19.894531 23.371094 19.882812 23.410156 19.859375 23.445312 C 19.835938 23.476562 19.800781 23.503906 19.761719 23.519531 Z M 19.304688 23.175781 L 19.304688 23.488281 L 19.582031 23.488281 C 19.652344 23.488281 19.707031 23.476562 19.742188 23.449219 C 19.78125 23.421875 19.800781 23.382812 19.800781 23.332031 C 19.800781 23.28125 19.78125 23.242188 19.742188 23.214844 C 19.707031 23.1875 19.652344 23.175781 19.582031 23.175781 Z M 19.609375 23.890625 C 19.6875 23.890625 19.746094 23.878906 19.789062 23.851562 C 19.828125 23.824219 19.847656 23.78125 19.847656 23.726562 C 19.847656 23.617188 19.769531 23.5625 19.609375 23.5625 L 19.304688 23.5625 L 19.304688 23.890625 Z M 19.609375 23.890625 " fill-opacity="1" fill-rule="nonzero"/><path fill="#868d89" d="M 21.148438 23.734375 L 20.664062 23.734375 L 20.5625 23.964844 L 20.464844 23.964844 L 20.863281 23.097656 L 20.953125 23.097656 L 21.347656 23.964844 L 21.253906 23.964844 Z M 21.117188 23.660156 L 20.90625 23.195312 L 20.699219 23.660156 Z M 21.117188 23.660156 " fill-opacity="1" fill-rule="nonzero"/></svg>