<svg width="130" height="130" viewBox="0 0 130 130" fill="none" xmlns="http://www.w3.org/2000/svg">
<path fill-rule="evenodd" clip-rule="evenodd" d="M86.0234 41.6393C86.1413 41.6162 86.2631 41.5932 86.3836 41.5702C86.2618 41.5932 86.1413 41.6162 86.0234 41.6393Z" fill="white"/>
<path fill-rule="evenodd" clip-rule="evenodd" d="M85.5007 41.7463C85.5549 41.7341 85.6118 41.7219 85.6673 41.711C85.6118 41.7232 85.5563 41.7341 85.5007 41.7463Z" fill="white"/>
<path fill-rule="evenodd" clip-rule="evenodd" d="M85.1676 41.8221C85.2204 41.8085 85.2746 41.7963 85.3301 41.7828C85.2759 41.795 85.2218 41.8085 85.1676 41.8221Z" fill="white"/>
<path fill-rule="evenodd" clip-rule="evenodd" d="M52.6297 37.2112C51.8944 47.0979 56.7626 54.0759 63.2802 56.0029C64.9363 53.9405 66.6331 51.6533 68.3719 49.1481C61.8272 47.4324 56.5784 43.4539 52.6297 37.2112Z" fill="#F8C703"/>
<mask id="mask0_54_2" style="mask-type:luminance" maskUnits="userSpaceOnUse" x="42" y="32" width="46" height="38">
<path d="M42.8296 32.7018H87.2896V69.6218H42.8296V32.7018Z" fill="white"/>
</mask>
<g mask="url(#mask0_54_2)">
<path fill-rule="evenodd" clip-rule="evenodd" d="M62.6329 55.3214C56.114 53.393 51.2471 46.415 51.9811 36.5296C55.9298 42.7723 61.1786 46.7495 67.7246 48.4652C65.9858 50.9731 64.2864 53.2576 62.6329 55.3214ZM67.9968 48.063C71.4621 43.0066 74.7676 40.003 77.912 39.0578C81.5615 37.9582 83.349 40.6706 86.5624 41.1446C83.4004 41.2719 81.5249 38.4891 78.0731 39.7661C74.9599 40.9171 72.2109 44.0723 69.1289 48.3921C71.9401 49.1369 75.0059 49.4578 78.3291 49.3536C74.9355 49.5756 71.7844 49.3725 68.8797 48.7428C68.1606 49.7598 67.4199 50.8391 66.6534 51.9698C65.7245 53.259 64.7996 54.4777 63.8788 55.6261C68.4829 56.5063 73.7452 54.9449 78.3914 50.2473C74.2679 55.6667 68.4274 57.5138 63.1692 56.4995C56.1194 65.0456 49.3486 69.4467 42.858 69.7053C48.4196 69.3966 54.7733 64.894 61.9166 56.2016C54.1166 53.978 48.0743 45.3195 51.7888 32.7027C55.4572 40.7031 60.859 45.8246 67.9954 48.0657L67.9968 48.063ZM50.7772 67.4073C56.6096 66.2238 62.5747 63.315 68.6712 58.6851C63.5213 63.7632 57.5575 66.672 50.7772 67.4073ZM79.476 47.3738C77.3608 55.2956 71.6625 58.9438 62.3811 58.3154C72.4818 60.0894 78.4997 56.4562 80.4375 47.4198C81.1864 43.9193 83.6997 41.9625 87.1379 41.1744C82.6908 41.8948 80.6054 43.1393 79.476 47.3724V47.3738Z" fill="white"/>
</g>
<path d="M47.2812 79.9461V78.2778H49.9516V83.7432C49.6185 83.8299 49.2163 83.9003 48.7437 83.9545C48.2738 84.0113 47.8364 84.0411 47.4329 84.0411C46.5405 84.0411 45.8742 83.9084 45.4341 83.6403C44.9967 83.3695 44.6947 82.8901 44.5295 82.1995C44.367 81.5061 44.2858 80.4634 44.2858 79.0686C44.2858 77.682 44.3724 76.6447 44.5458 75.954C44.7191 75.2607 45.036 74.7786 45.4991 74.5078C45.9609 74.2342 46.6529 74.0961 47.5737 74.0961C47.9529 74.0961 48.3618 74.1259 48.8033 74.1828C49.2474 74.237 49.6239 74.302 49.9354 74.3778V75.9757C49.1256 75.8606 48.5379 75.8024 48.1695 75.8024C47.5304 75.8024 47.0889 75.8552 46.8479 75.9595C46.6095 76.0651 46.4443 76.3319 46.3549 76.7611C46.2642 77.1877 46.2195 77.9569 46.2195 79.0686C46.2195 80.1059 46.2466 80.8426 46.3008 81.2786C46.3576 81.716 46.47 82.0099 46.6366 82.1615C46.8018 82.3132 47.0821 82.389 47.4762 82.389C47.5629 82.389 47.7876 82.3755 48.1533 82.3457V79.9461H47.2812Z" fill="white"/>
<path d="M59.0569 74.2099V79.6211C59.0569 80.8995 59.0027 81.8298 58.8944 82.4107C58.7861 82.9889 58.5315 83.406 58.1306 83.662C57.7325 83.9152 57.0771 84.0411 56.1644 84.0411C55.2503 84.0411 54.5936 83.9152 54.1927 83.662C53.7919 83.406 53.5373 82.9889 53.429 82.4107C53.3206 81.8298 53.2665 80.8995 53.2665 79.6211V74.2099H55.2002V80.2711C55.2002 80.9577 55.2165 81.4303 55.249 81.6903C55.2842 81.9476 55.3654 82.1182 55.4927 82.2049C55.6187 82.2888 55.8421 82.3295 56.1644 82.3295C56.4813 82.3295 56.702 82.2888 56.8252 82.2049C56.9471 82.1182 57.0256 81.9489 57.0581 81.6957C57.0934 81.4438 57.1123 80.9685 57.1123 80.2711V74.2099H59.0569ZM54.2036 73.3324V73.2186L55.2598 71.4799H57.0852L58.1577 73.2186V73.3324H56.9011L56.1644 72.3303L55.444 73.3324H54.2036Z" fill="white"/>
<path d="M64.0161 83.9274V80.5636L61.714 74.2099H63.7073L64.9748 78.4024H65.1048L66.3344 74.2099H68.2573L65.9498 80.5636V83.9274H64.0161Z" fill="white"/>
<path d="M74.9057 83.9274L73.9632 80.5365H72.9178V83.9274H70.9678V74.2099H74.2449C74.9409 74.2099 75.465 74.3277 75.8157 74.562C76.1691 74.7976 76.4075 75.1361 76.5307 75.5803C76.6526 76.0217 76.7149 76.6135 76.7149 77.357C76.7149 78.0652 76.6512 78.6502 76.5253 79.112C76.398 79.571 76.142 79.919 75.7561 80.1574L76.9261 83.9274H74.9057ZM73.779 78.8574C74.0891 78.8574 74.3099 78.8235 74.4399 78.7545C74.5726 78.6827 74.6592 78.5513 74.6999 78.359C74.7432 78.164 74.7649 77.8363 74.7649 77.3732C74.7649 76.9223 74.7432 76.6027 74.6999 76.4145C74.6592 76.2235 74.5726 76.0935 74.4399 76.0245C74.3099 75.9527 74.0891 75.9161 73.779 75.9161H72.9178V78.8574H73.779Z" fill="white"/>
<path d="M84.1749 83.9274L83.7903 81.934H81.6183L81.2337 83.9274H79.2999L81.3041 74.2099H84.1424L86.152 83.9274H84.1749ZM82.7449 76.0461H82.6637L81.8999 80.2549H83.4924L82.7449 76.0461ZM81.8024 73.3324V73.262L82.5499 71.2686H84.3591V71.339L83.2433 73.3324H81.8024Z" fill="white"/>
<path d="M38.6107 89.5056H40.4903C40.8938 89.5056 41.1999 89.5787 41.4057 89.7223C41.6116 89.8631 41.7497 90.0716 41.8228 90.3452C41.8946 90.616 41.9311 90.9789 41.9311 91.4339C41.9311 91.8673 41.8986 92.222 41.8336 92.4956C41.7686 92.7705 41.6292 92.9871 41.4166 93.1456C41.2067 93.3013 40.8966 93.3785 40.4849 93.3785H39.7536V95.1985H38.6107V89.5056ZM40.2032 92.3764C40.3901 92.3764 40.5228 92.3548 40.5986 92.3114C40.6772 92.2681 40.7286 92.1855 40.7503 92.0623C40.7747 91.9363 40.7882 91.7264 40.7882 91.4339C40.7882 91.1414 40.7747 90.9356 40.7503 90.8164C40.7286 90.6945 40.6799 90.6133 40.6041 90.5727C40.5282 90.5293 40.3955 90.5077 40.2086 90.5077H39.7536V92.3764H40.2032Z" fill="#F8C703"/>
<path d="M43.6921 95.2635C43.3523 95.2635 43.1071 95.1606 42.9555 94.9547C42.8065 94.7489 42.7334 94.4239 42.7334 93.9797C42.7334 93.6547 42.7659 93.4002 42.8309 93.216C42.8986 93.0318 43.011 92.8964 43.1667 92.8097C43.3252 92.7231 43.5459 92.6797 43.8276 92.6797C44.0253 92.6797 44.2907 92.6933 44.6238 92.7177V92.5227C44.6238 92.2925 44.6049 92.13 44.5696 92.0352C44.5331 91.9377 44.4667 91.8767 44.3692 91.851C44.2717 91.8226 44.1052 91.8077 43.8709 91.8077C43.6353 91.8077 43.3252 91.8266 42.9392 91.8618V91.0331C43.3536 90.9505 43.7707 90.9085 44.1905 90.9085C44.6049 90.9085 44.919 90.9654 45.133 91.0764C45.3496 91.1888 45.4959 91.3635 45.5717 91.6018C45.6503 91.8375 45.6909 92.1746 45.6909 92.6147V95.1985H44.6726L44.6401 94.7002H44.5805C44.5074 94.906 44.3909 95.0522 44.2284 95.1389C44.0686 95.2215 43.8899 95.2635 43.6921 95.2635ZM44.158 94.3372C44.2514 94.3372 44.3273 94.3264 44.3855 94.3047C44.4424 94.2831 44.4911 94.2425 44.5317 94.1802C44.5927 94.0867 44.6238 93.8971 44.6238 93.6114V93.4002H44.1255C43.9806 93.4002 43.8844 93.4313 43.8384 93.4922C43.791 93.5545 43.768 93.6872 43.768 93.8931C43.768 94.0664 43.791 94.1842 43.8384 94.2452C43.8844 94.3075 43.9914 94.3372 44.158 94.3372Z" fill="#F8C703"/>
<path d="M46.8461 90.9789H47.859L47.8915 91.6722H47.9565C48.0391 91.3879 48.1583 91.1888 48.314 91.0764C48.4684 90.9654 48.6742 90.9085 48.9315 90.9085V92.0297C48.685 92.0297 48.4887 92.0663 48.3411 92.1381C48.1962 92.2112 48.0878 92.3371 48.0161 92.5172C47.947 92.6987 47.9132 92.9533 47.9132 93.281V95.1985H46.8461V90.9789Z" fill="#F8C703"/>
<path d="M51.7053 94.7435H51.6458C51.5767 94.925 51.4697 95.0563 51.3262 95.1389C51.1813 95.2215 51.0012 95.2635 50.7845 95.2635C50.5096 95.2635 50.2984 95.1971 50.1508 95.0631C50.0018 94.9263 49.8975 94.7042 49.8366 94.3968C49.7743 94.0867 49.7445 93.6493 49.7445 93.086C49.7445 92.5091 49.777 92.0663 49.842 91.7589C49.9097 91.4488 50.018 91.2308 50.167 91.1035C50.3146 90.9735 50.5272 90.9085 50.8062 90.9085C51.2612 90.9085 51.5455 91.0967 51.662 91.4718H51.7324L51.7649 90.9789H52.7724V96.8181H51.7053V94.7435ZM51.2666 94.3047C51.3817 94.3047 51.4697 94.2858 51.532 94.2452C51.5929 94.2018 51.6363 94.1233 51.662 94.0068C51.6904 93.8741 51.7053 93.5667 51.7053 93.086C51.7053 92.7935 51.7013 92.5822 51.6945 92.4522C51.6904 92.3195 51.6742 92.2112 51.6458 92.1272C51.6241 92.0297 51.5835 91.9634 51.5266 91.9268C51.4684 91.8916 51.3817 91.8727 51.2666 91.8727C51.1176 91.8727 51.0147 91.8943 50.9578 91.9377C50.8996 91.981 50.8603 92.0826 50.8387 92.241C50.8197 92.3967 50.8116 92.6784 50.8116 93.086C50.8116 93.495 50.8197 93.778 50.8387 93.9364C50.8603 94.0962 50.8996 94.1964 50.9578 94.2397C51.0147 94.2831 51.1176 94.3047 51.2666 94.3047Z" fill="#F8C703"/>
<path d="M55.8751 94.6947H55.8101C55.6761 95.0739 55.3673 95.2635 54.8839 95.2635C54.613 95.2635 54.4086 95.2107 54.2718 95.1064C54.1377 95.0021 54.047 94.8451 54.001 94.6352C53.9536 94.4226 53.9305 94.1287 53.9305 93.7522V90.9789H54.9976V93.2593C54.9976 93.6141 55.0058 93.8579 55.0247 93.9906C55.0423 94.1246 55.0762 94.21 55.1276 94.2452C55.1818 94.2777 55.2766 94.2939 55.4147 94.2939C55.5515 94.2939 55.649 94.2668 55.7072 94.2127C55.7641 94.1585 55.8006 94.0556 55.8155 93.9039C55.8331 93.7522 55.8426 93.4977 55.8426 93.1402V90.9789H56.9097V95.1985H55.9076L55.8751 94.6947Z" fill="#F8C703"/>
<path d="M60.9338 93.4164H59.0543C59.0543 93.7346 59.0665 93.9554 59.0922 94.0772C59.1206 94.1964 59.1843 94.2763 59.2818 94.3156C59.382 94.3521 59.5634 94.3697 59.8234 94.3697C60.032 94.3697 60.3705 94.3535 60.8363 94.321V95.1389C60.6847 95.1714 60.4897 95.1998 60.2513 95.2256C60.0157 95.25 59.7909 95.2635 59.5743 95.2635C59.0827 95.2635 58.7252 95.1917 58.5018 95.0468C58.281 94.8992 58.1402 94.6826 58.0793 94.3968C58.017 94.1084 57.9872 93.6751 57.9872 93.0968C57.9872 92.5308 58.017 92.1002 58.0793 91.8077C58.1402 91.5152 58.277 91.2931 58.4909 91.1414C58.7076 90.987 59.0461 90.9085 59.5093 90.9085C59.9602 90.9085 60.2866 90.9789 60.4897 91.1197C60.6915 91.2606 60.816 91.4718 60.8634 91.7535C60.9095 92.0352 60.9338 92.4834 60.9338 93.0968V93.4164ZM59.5038 91.7968C59.363 91.7968 59.2628 91.8171 59.2059 91.8564C59.1477 91.893 59.1084 91.9729 59.0868 92.0947C59.0651 92.218 59.0543 92.4197 59.0543 92.7014H59.9318C59.9318 92.4197 59.9209 92.218 59.8993 92.0947C59.8776 91.9688 59.837 91.8876 59.7801 91.851C59.7259 91.8158 59.6338 91.7968 59.5038 91.7968Z" fill="#F8C703"/>
<path d="M66.7601 93.4164H64.8806C64.8806 93.7346 64.8927 93.9554 64.9185 94.0772C64.9469 94.1964 65.0106 94.2763 65.1081 94.3156C65.2083 94.3521 65.3897 94.3697 65.6497 94.3697C65.8583 94.3697 66.1968 94.3535 66.6626 94.321V95.1389C66.511 95.1714 66.316 95.1998 66.0776 95.2256C65.842 95.25 65.6172 95.2635 65.4006 95.2635C64.909 95.2635 64.5515 95.1917 64.3281 95.0468C64.1073 94.8992 63.9665 94.6826 63.9056 94.3968C63.8433 94.1084 63.8135 93.6751 63.8135 93.0968C63.8135 92.5308 63.8433 92.1002 63.9056 91.8077C63.9665 91.5152 64.1033 91.2931 64.3172 91.1414C64.5339 90.987 64.8724 90.9085 65.3356 90.9085C65.7865 90.9085 66.1129 90.9789 66.316 91.1197C66.5177 91.2606 66.6423 91.4718 66.6897 91.7535C66.7358 92.0352 66.7601 92.4834 66.7601 93.0968V93.4164ZM65.3301 91.7968C65.1893 91.7968 65.0891 91.8171 65.0322 91.8564C64.974 91.893 64.9347 91.9729 64.9131 92.0947C64.8914 92.218 64.8806 92.4197 64.8806 92.7014H65.7581C65.7581 92.4197 65.7472 92.218 65.7256 92.0947C65.7039 91.9688 65.6633 91.8876 65.6064 91.851C65.5522 91.8158 65.4601 91.7968 65.3301 91.7968Z" fill="#F8C703"/>
<path d="M69.012 95.2635C68.817 95.2635 68.6017 95.25 68.3675 95.2256C68.1318 95.1998 67.9341 95.1701 67.7716 95.1335V94.3156C68.1318 94.3521 68.446 94.3697 68.7141 94.3697C68.8793 94.3697 69.0026 94.3616 69.0825 94.3427C69.161 94.3251 69.2152 94.2885 69.245 94.2343C69.2775 94.1775 69.2937 94.0908 69.2937 93.9743C69.2937 93.8484 69.2856 93.7604 69.272 93.7089C69.2571 93.6547 69.2287 93.6195 69.1854 93.6006C69.1447 93.5789 69.073 93.56 68.9687 93.541L68.2754 93.4272C68.0546 93.3947 67.8976 93.2864 67.8041 93.1022C67.7134 92.9154 67.6687 92.612 67.6687 92.1922C67.6687 91.7196 67.7838 91.3879 68.0154 91.1956C68.2496 91.0046 68.595 90.9085 69.05 90.9085C69.2341 90.9085 69.4264 90.922 69.6295 90.9464C69.8354 90.9721 70.0006 91.0046 70.1279 91.0439V91.8727C69.7731 91.8293 69.4806 91.8077 69.2504 91.8077C69.0405 91.8077 68.901 91.832 68.8333 91.8781C68.7642 91.9214 68.7304 92.0216 68.7304 92.176C68.7304 92.2992 68.7358 92.3859 68.7466 92.436C68.7575 92.4834 68.7805 92.5172 68.817 92.5389C68.8522 92.5579 68.9145 92.5714 69.0012 92.5822L69.6079 92.6743C69.7622 92.7041 69.8895 92.7502 69.987 92.8152C70.0872 92.8775 70.1685 92.9926 70.2308 93.1618C70.2958 93.3325 70.3283 93.5776 70.3283 93.8985C70.3283 94.4185 70.22 94.776 70.0033 94.971C69.7893 95.166 69.4589 95.2635 69.012 95.2635Z" fill="#F8C703"/>
<path d="M71.5917 95.1985V91.8727H71.0717V90.9789H71.5917V89.7548H72.6587V90.9789H73.3304V91.8727H72.6587V95.1985H71.5917Z" fill="#F8C703"/>
<path d="M75.0248 95.2635C74.6849 95.2635 74.4398 95.1606 74.2881 94.9547C74.1392 94.7489 74.066 94.4239 74.066 93.9797C74.066 93.6547 74.0985 93.4002 74.1635 93.216C74.2312 93.0318 74.3436 92.8964 74.4994 92.8097C74.6578 92.7231 74.8785 92.6797 75.1602 92.6797C75.3579 92.6797 75.6233 92.6933 75.9565 92.7177V92.5227C75.9565 92.2925 75.9375 92.13 75.9023 92.0352C75.8657 91.9377 75.7994 91.8767 75.7019 91.851C75.6044 91.8226 75.4378 91.8077 75.2035 91.8077C74.9679 91.8077 74.6578 91.8266 74.2719 91.8618V91.0331C74.6862 90.9505 75.1033 90.9085 75.5231 90.9085C75.9375 90.9085 76.2517 90.9654 76.4656 91.0764C76.6823 91.1888 76.8285 91.3635 76.9044 91.6018C76.9829 91.8375 77.0235 92.1746 77.0235 92.6147V95.1985H76.0052L75.9727 94.7002H75.9131C75.84 94.906 75.7235 95.0522 75.561 95.1389C75.4012 95.2215 75.2225 95.2635 75.0248 95.2635ZM75.4906 94.3372C75.5841 94.3372 75.6599 94.3264 75.7181 94.3047C75.775 94.2831 75.8237 94.2425 75.8644 94.1802C75.9253 94.0867 75.9565 93.8971 75.9565 93.6114V93.4002H75.4581C75.3132 93.4002 75.2171 93.4313 75.171 93.4922C75.1236 93.5545 75.1006 93.6872 75.1006 93.8931C75.1006 94.0664 75.1236 94.1842 75.171 94.2452C75.2171 94.3075 75.3241 94.3372 75.4906 94.3372Z" fill="#F8C703"/>
<path d="M79.1428 95.2635C78.8639 95.2635 78.6513 95.2012 78.5037 95.0793C78.3547 94.9534 78.2464 94.7367 78.1787 94.4293C78.1137 94.1192 78.0812 93.6751 78.0812 93.0968C78.0812 92.5308 78.111 92.092 78.1733 91.7806C78.2342 91.4705 78.3385 91.2484 78.4874 91.1143C78.635 90.9776 78.8463 90.9085 79.1212 90.9085C79.3378 90.9085 79.5179 90.9505 79.6628 91.0331C79.8064 91.117 79.9134 91.247 79.9824 91.4231H80.042V89.0506H81.1091V95.1985H80.1016L80.0691 94.7002H79.9987C79.8822 95.0766 79.5978 95.2635 79.1428 95.2635ZM79.6033 94.3047C79.7184 94.3047 79.805 94.2871 79.8633 94.2506C79.9201 94.2113 79.9635 94.1355 79.9933 94.0231C80.0258 93.8646 80.042 93.5518 80.042 93.086C80.042 92.6418 80.0312 92.3588 80.0095 92.2356C79.9878 92.092 79.9459 91.9959 79.8849 91.9485C79.8226 91.8984 79.7292 91.8727 79.6033 91.8727C79.4543 91.8727 79.3514 91.8943 79.2945 91.9377C79.2363 91.981 79.197 92.0826 79.1753 92.241C79.1564 92.3967 79.1483 92.6784 79.1483 93.086C79.1483 93.495 79.1564 93.778 79.1753 93.9364C79.197 94.0962 79.2363 94.1964 79.2945 94.2397C79.3514 94.2831 79.4543 94.3047 79.6033 94.3047Z" fill="#F8C703"/>
<path d="M84.2119 94.6947H84.1469C84.0129 95.0739 83.7041 95.2635 83.2207 95.2635C82.9498 95.2635 82.7454 95.2107 82.6086 95.1064C82.4745 95.0021 82.3838 94.8451 82.3378 94.6352C82.2904 94.4226 82.2673 94.1287 82.2673 93.7522V90.9789H83.3344V93.2593C83.3344 93.6141 83.3425 93.8579 83.3615 93.9906C83.3791 94.1246 83.413 94.21 83.4644 94.2452C83.5186 94.2777 83.6134 94.2939 83.7515 94.2939C83.8883 94.2939 83.9858 94.2668 84.044 94.2127C84.1009 94.1585 84.1374 94.0556 84.1523 93.9039C84.1699 93.7522 84.1794 93.4977 84.1794 93.1402V90.9789H85.2465V95.1985H84.2444L84.2119 94.6947Z" fill="#F8C703"/>
<path d="M87.2068 95.2635C86.8669 95.2635 86.6218 95.1606 86.4701 94.9547C86.3212 94.7489 86.248 94.4239 86.248 93.9797C86.248 93.6547 86.2805 93.4002 86.3455 93.216C86.4133 93.0318 86.5257 92.8964 86.6814 92.8097C86.8398 92.7231 87.0605 92.6797 87.3422 92.6797C87.5399 92.6797 87.8053 92.6933 88.1385 92.7177V92.5227C88.1385 92.2925 88.1195 92.13 88.0843 92.0352C88.0477 91.9377 87.9814 91.8767 87.8839 91.851C87.7864 91.8226 87.6198 91.8077 87.3855 91.8077C87.1499 91.8077 86.8398 91.8266 86.4539 91.8618V91.0331C86.8683 90.9505 87.2853 90.9085 87.7051 90.9085C88.1195 90.9085 88.4337 90.9654 88.6476 91.0764C88.8643 91.1888 89.0105 91.3635 89.0864 91.6018C89.1649 91.8375 89.2055 92.1746 89.2055 92.6147V95.1985H88.1872L88.1547 94.7002H88.0951C88.022 94.906 87.9055 95.0522 87.743 95.1389C87.5833 95.2215 87.4045 95.2635 87.2068 95.2635ZM87.6726 94.3372C87.7661 94.3372 87.8419 94.3264 87.9001 94.3047C87.957 94.2831 88.0058 94.2425 88.0464 94.1802C88.1073 94.0867 88.1385 93.8971 88.1385 93.6114V93.4002H87.6401C87.4952 93.4002 87.3991 93.4313 87.353 93.4922C87.3057 93.5545 87.2826 93.6872 87.2826 93.8931C87.2826 94.0664 87.3057 94.1842 87.353 94.2452C87.3991 94.3075 87.5061 94.3372 87.6726 94.3372Z" fill="#F8C703"/>
<path d="M90.3607 95.1985V89.0506H91.4278V95.1985H90.3607Z" fill="#F8C703"/>
</svg>
